<svg width="85" height="22" viewBox="0 0 85 22" fill="none" xmlns="http://www.w3.org/2000/svg">
<path d="M8.834 5.948H7.294V12.43C7.294 13.886 6.44 14.824 4.942 14.824C3.458 14.824 2.604 13.886 2.604 12.43V5.948H1.064V12.388C1.064 14.698 2.534 16.21 4.942 16.21C7.35 16.21 8.834 14.698 8.834 12.388V5.948ZM17.9488 12.29C17.9488 10.05 16.6468 8.44 14.6728 8.44C13.6228 8.44 12.7128 8.986 12.1808 9.938V8.58H10.8648V18.702H12.2788V14.74C12.8108 15.636 13.6648 16.14 14.6728 16.14C16.6608 16.14 17.9488 14.53 17.9488 12.29ZM16.4788 12.29C16.4788 13.956 15.5968 14.88 14.3788 14.88C13.1888 14.88 12.2788 13.928 12.2788 12.29C12.2788 10.624 13.2028 9.686 14.3788 9.686C15.5968 9.686 16.4788 10.624 16.4788 12.29ZM22.2136 18.856C24.3136 18.856 25.5596 17.694 25.5596 15.748V8.58H24.2436V9.896C23.7396 8.958 22.8996 8.44 21.8356 8.44C19.9736 8.44 18.7136 9.924 18.7136 12.136C18.7136 14.32 20.0296 15.846 21.8776 15.846C22.8856 15.846 23.7256 15.328 24.1456 14.432V15.776C24.1456 17.05 23.4736 17.736 22.1996 17.736C21.0516 17.736 20.3796 17.176 20.2956 16.14H18.9236C19.0076 17.82 20.2676 18.856 22.2136 18.856ZM20.1416 12.136C20.1416 10.61 20.9116 9.658 22.1296 9.658C23.3476 9.658 24.1456 10.638 24.1456 12.178C24.1456 13.648 23.3336 14.614 22.1296 14.614C20.8976 14.614 20.1416 13.676 20.1416 12.136ZM28.9311 12.206C28.9311 10.568 30.0931 9.868 31.6891 9.952V8.482C30.4711 8.482 29.3511 9.126 28.8331 10.148V8.58H27.5171V16H28.9311V12.206ZM32.2488 12.29C32.2488 14.516 33.5368 16.14 35.5388 16.14C36.5888 16.14 37.4848 15.608 38.0168 14.67V16H39.3328V8.58H38.0168V9.882C37.4988 8.944 36.6728 8.44 35.5948 8.44C33.5508 8.44 32.2488 10.036 32.2488 12.29ZM33.7188 12.29C33.7188 10.61 34.5868 9.686 35.8188 9.686C36.9948 9.686 37.9188 10.596 37.9188 12.262C37.9188 13.9 37.0228 14.88 35.8188 14.88C34.5868 14.88 33.7188 13.942 33.7188 12.29ZM40.6843 12.29C40.6843 14.516 41.9723 16.14 43.9743 16.14C45.0243 16.14 45.9203 15.608 46.4523 14.67V16H47.7683V5.948H46.3543V9.854C45.8363 8.944 44.9683 8.44 43.9743 8.44C41.9723 8.44 40.6843 10.036 40.6843 12.29ZM42.1543 12.29C42.1543 10.61 43.0223 9.686 44.2543 9.686C45.4303 9.686 46.3543 10.596 46.3543 12.262C46.3543 13.9 45.4583 14.88 44.2543 14.88C43.0223 14.88 42.1543 13.942 42.1543 12.29ZM52.7859 16.14C54.5359 16.14 55.8099 15.146 56.1739 13.494H54.7739C54.5359 14.46 53.8079 15.034 52.7579 15.034C51.5119 15.034 50.7559 14.152 50.6439 12.64H56.1739C56.4259 10.232 54.9559 8.44 52.7439 8.44C50.6999 8.44 49.2019 10.05 49.2019 12.248C49.2019 14.586 50.6439 16.14 52.7859 16.14ZM52.7159 9.504C53.8639 9.504 54.6059 10.33 54.6759 11.702H50.6579C50.8119 10.316 51.5819 9.504 52.7159 9.504Z" fill="#B79A5C"/>
<path d="M70.833 15.1673L79.1663 6.83398M79.1663 6.83398H70.833M79.1663 6.83398V15.1673" stroke="#B79A5C" stroke-width="1.67" stroke-linecap="round" stroke-linejoin="round"/>
</svg>
