<svg width="352" height="26" viewBox="0 0 352 26" fill="none" xmlns="http://www.w3.org/2000/svg">
<path d="M82.152 19H84.024L79.656 7.512H77.72L73.32 19H75.096L76.152 16.152H81.112L82.152 19ZM78.648 9.432L80.584 14.728H76.68L78.648 9.432ZM87.1114 19V7.512H85.4794V19H87.1114ZM90.9864 19V7.512H89.3544V19H90.9864ZM96.7174 19.16C98.7174 19.16 100.173 18.024 100.589 16.136H98.9894C98.7174 17.24 97.8854 17.896 96.6854 17.896C95.2614 17.896 94.3974 16.888 94.2694 15.16H100.589C100.877 12.408 99.1974 10.36 96.6694 10.36C94.3334 10.36 92.6214 12.2 92.6214 14.712C92.6214 17.384 94.2694 19.16 96.7174 19.16ZM96.6374 11.576C97.9494 11.576 98.7974 12.52 98.8774 14.088H94.2854C94.4614 12.504 95.3414 11.576 96.6374 11.576ZM103.924 14.664C103.924 12.792 105.252 11.992 107.076 12.088V10.408C105.684 10.408 104.404 11.144 103.812 12.312V10.52H102.308V19H103.924V14.664ZM111.09 14.76C111.09 17.304 112.562 19.16 114.85 19.16C116.05 19.16 117.074 18.552 117.682 17.48V19H119.186V10.52H117.682V12.008C117.09 10.936 116.146 10.36 114.914 10.36C112.578 10.36 111.09 12.184 111.09 14.76ZM112.77 14.76C112.77 12.84 113.762 11.784 115.17 11.784C116.514 11.784 117.57 12.824 117.57 14.728C117.57 16.6 116.546 17.72 115.17 17.72C113.762 17.72 112.77 16.648 112.77 14.76ZM126.635 15.512C126.635 16.84 125.755 17.736 124.667 17.736C123.611 17.736 122.875 17.128 122.875 15.656V10.52H121.259V15.976C121.259 18.152 122.443 19.16 124.155 19.16C125.307 19.16 126.299 18.536 126.747 17.656V19H128.251V10.52H126.635V15.512ZM138.623 17.432C138.287 17.592 137.951 17.656 137.567 17.656C136.703 17.656 136.143 17.24 136.143 16.072V11.896H138.703V10.52H136.143V8.008H134.527V10.52H132.655V11.896H134.527V16.44C134.527 18.312 135.615 19.16 137.183 19.16C137.695 19.16 138.127 19.08 138.623 18.856V17.432ZM139.403 14.76C139.403 17.304 140.875 19.16 143.163 19.16C144.363 19.16 145.387 18.552 145.995 17.48V19H147.499V10.52H145.995V12.008C145.403 10.936 144.459 10.36 143.227 10.36C140.891 10.36 139.403 12.184 139.403 14.76ZM141.083 14.76C141.083 12.84 142.075 11.784 143.483 11.784C144.827 11.784 145.883 12.824 145.883 14.728C145.883 16.6 144.859 17.72 143.483 17.72C142.075 17.72 141.083 16.648 141.083 14.76ZM157.747 14.76C157.747 12.184 156.259 10.36 153.987 10.36C152.835 10.36 151.859 10.936 151.267 11.976V7.512H149.651V19H151.155V17.48C151.763 18.552 152.787 19.16 153.987 19.16C156.275 19.16 157.747 17.304 157.747 14.76ZM156.067 14.76C156.067 16.648 155.059 17.72 153.667 17.72C152.291 17.72 151.267 16.6 151.267 14.728C151.267 12.824 152.323 11.784 153.667 11.784C155.059 11.784 156.067 12.84 156.067 14.76ZM161.018 19V7.512H159.386V19H161.018ZM166.749 19.16C168.749 19.16 170.205 18.024 170.621 16.136H169.021C168.749 17.24 167.917 17.896 166.717 17.896C165.293 17.896 164.429 16.888 164.301 15.16H170.621C170.909 12.408 169.229 10.36 166.701 10.36C164.365 10.36 162.653 12.2 162.653 14.712C162.653 17.384 164.301 19.16 166.749 19.16ZM166.669 11.576C167.981 11.576 168.829 12.52 168.909 14.088H164.317C164.493 12.504 165.373 11.576 166.669 11.576ZM171.575 14.76C171.575 17.304 173.047 19.16 175.335 19.16C176.535 19.16 177.559 18.552 178.167 17.48V19H179.671V10.52H178.167V12.008C177.575 10.936 176.631 10.36 175.399 10.36C173.062 10.36 171.575 12.184 171.575 14.76ZM173.255 14.76C173.255 12.84 174.247 11.784 175.655 11.784C176.999 11.784 178.055 12.824 178.055 14.728C178.055 16.6 177.031 17.72 175.655 17.72C174.247 17.72 173.255 16.648 173.255 14.76ZM187.119 15.512C187.119 16.84 186.239 17.736 185.151 17.736C184.095 17.736 183.359 17.128 183.359 15.656V10.52H181.743V15.976C181.743 18.152 182.927 19.16 184.639 19.16C185.791 19.16 186.783 18.536 187.231 17.656V19H188.735V10.52H187.119V15.512ZM193.715 14.76C193.715 17.304 195.187 19.16 197.475 19.16C198.675 19.16 199.699 18.552 200.307 17.48V19H201.811V7.512H200.195V11.976C199.603 10.936 198.611 10.36 197.475 10.36C195.187 10.36 193.715 12.184 193.715 14.76ZM195.395 14.76C195.395 12.84 196.387 11.784 197.795 11.784C199.139 11.784 200.195 12.824 200.195 14.728C200.195 16.6 199.171 17.72 197.795 17.72C196.387 17.72 195.395 16.648 195.395 14.76ZM207.546 19.16C209.546 19.16 211.002 18.024 211.418 16.136H209.818C209.546 17.24 208.714 17.896 207.514 17.896C206.09 17.896 205.226 16.888 205.098 15.16H211.418C211.706 12.408 210.026 10.36 207.498 10.36C205.162 10.36 203.45 12.2 203.45 14.712C203.45 17.384 205.098 19.16 207.546 19.16ZM207.466 11.576C208.778 11.576 209.626 12.52 209.706 14.088H205.114C205.289 12.504 206.17 11.576 207.466 11.576ZM224.575 14.76C224.575 12.184 223.087 10.36 220.815 10.36C219.663 10.36 218.687 10.936 218.095 11.976V7.512H216.479V19H217.983V17.48C218.591 18.552 219.615 19.16 220.815 19.16C223.103 19.16 224.575 17.304 224.575 14.76ZM222.895 14.76C222.895 16.648 221.887 17.72 220.495 17.72C219.119 17.72 218.095 16.6 218.095 14.728C218.095 12.824 219.151 11.784 220.495 11.784C221.887 11.784 222.895 12.84 222.895 14.76ZM229.766 19.16C232.166 19.16 233.926 17.272 233.926 14.76C233.926 12.248 232.166 10.36 229.766 10.36C227.366 10.36 225.606 12.248 225.606 14.76C225.606 17.272 227.366 19.16 229.766 19.16ZM229.766 17.736C228.374 17.736 227.286 16.616 227.286 14.76C227.286 12.904 228.374 11.8 229.766 11.8C231.158 11.8 232.262 12.904 232.262 14.76C232.262 16.616 231.158 17.736 229.766 17.736ZM237.189 14.664C237.189 12.792 238.517 11.992 240.341 12.088V10.408C238.949 10.408 237.669 11.144 237.077 12.312V10.52H235.573V19H237.189V14.664ZM240.981 14.76C240.981 17.304 242.453 19.16 244.741 19.16C245.941 19.16 246.965 18.552 247.573 17.48V19H249.077V7.512H247.461V11.976C246.869 10.936 245.877 10.36 244.741 10.36C242.453 10.36 240.981 12.184 240.981 14.76ZM242.661 14.76C242.661 12.84 243.653 11.784 245.061 11.784C246.405 11.784 247.461 12.824 247.461 14.728C247.461 16.6 246.437 17.72 245.061 17.72C243.653 17.72 242.661 16.648 242.661 14.76Z" fill="#B79A5C"/>
<path d="M264.833 17.1673L273.167 8.83398M273.167 8.83398H264.833M273.167 8.83398V17.1673" stroke="#B79A5C" stroke-width="1.67" stroke-linecap="round" stroke-linejoin="round"/>
</svg>
