<svg width="41" height="40" viewBox="0 0 41 40" fill="none" xmlns="http://www.w3.org/2000/svg">
<rect x="0.333008" width="40" height="40" rx="8" fill="#ECFDF3"/>
<path d="M14.7636 26.198C15.2705 25.0037 16.4541 24.166 17.8333 24.166H22.8333C24.2126 24.166 25.3961 25.0037 25.9031 26.198M23.6667 17.916C23.6667 19.757 22.1743 21.2493 20.3333 21.2493C18.4924 21.2493 17 19.757 17 17.916C17 16.0751 18.4924 14.5827 20.3333 14.5827C22.1743 14.5827 23.6667 16.0751 23.6667 17.916ZM28.6667 19.9993C28.6667 24.6017 24.9357 28.3327 20.3333 28.3327C15.731 28.3327 12 24.6017 12 19.9993C12 15.397 15.731 11.666 20.3333 11.666C24.9357 11.666 28.6667 15.397 28.6667 19.9993Z" stroke="#039855" stroke-width="2" stroke-linecap="round" stroke-linejoin="round"/>
</svg>
