<svg width="17" height="20" viewBox="0 0 17 20" fill="none" xmlns="http://www.w3.org/2000/svg">
<path d="M15.1663 8.74935V5.66602C15.1663 4.26588 15.1663 3.56582 14.8939 3.03104C14.6542 2.56063 14.2717 2.17818 13.8013 1.9385C13.2665 1.66602 12.5665 1.66602 11.1663 1.66602H5.83301C4.43288 1.66602 3.73281 1.66602 3.19803 1.9385C2.72763 2.17818 2.34517 2.56063 2.10549 3.03104C1.83301 3.56582 1.83301 4.26588 1.83301 5.66602V14.3327C1.83301 15.7328 1.83301 16.4329 2.10549 16.9677C2.34517 17.4381 2.72763 17.8205 3.19803 18.0602C3.73281 18.3327 4.43288 18.3327 5.83301 18.3327H8.49967M10.1663 9.16602H5.16634M6.83301 12.4993H5.16634M11.833 5.83268H5.16634M13.4997 17.4993V12.4993M10.9997 14.9993H15.9997" stroke="#B79A5C" stroke-width="1.67" stroke-linecap="round" stroke-linejoin="round"/>
</svg>
