<svg width="173" height="22" viewBox="0 0 173 22" fill="none" xmlns="http://www.w3.org/2000/svg">
<path d="M8.008 16H9.646L5.824 5.948H4.13L0.28 16H1.834L2.758 13.508H7.098L8.008 16ZM4.942 7.628L6.636 12.262H3.22L4.942 7.628ZM12.3335 11.814C12.3335 10.498 13.1455 9.686 14.1115 9.686C15.1615 9.686 15.7215 10.4 15.7215 11.674V16H17.1355V11.198C17.1355 9.42 16.1275 8.44 14.6015 8.44C13.5795 8.44 12.7395 8.986 12.2355 9.812V8.58H10.9195V16H12.3335V11.814ZM20.4272 11.814C20.4272 10.498 21.2392 9.686 22.2052 9.686C23.2552 9.686 23.8152 10.4 23.8152 11.674V16H25.2292V11.198C25.2292 9.42 24.2212 8.44 22.6952 8.44C21.6732 8.44 20.8332 8.986 20.3292 9.812V8.58H19.0132V16H20.4272V11.814ZM31.741 12.948C31.741 14.11 30.971 14.894 30.019 14.894C29.095 14.894 28.451 14.362 28.451 13.074V8.58H27.037V13.354C27.037 15.258 28.073 16.14 29.571 16.14C30.579 16.14 31.447 15.594 31.839 14.824V16H33.155V8.58H31.741V12.948ZM36.5467 16V5.948H35.1187V16H36.5467ZM41.5613 16.14C43.3113 16.14 44.5853 15.146 44.9493 13.494H43.5493C43.3113 14.46 42.5833 15.034 41.5333 15.034C40.2873 15.034 39.5313 14.152 39.4193 12.64H44.9493C45.2013 10.232 43.7313 8.44 41.5193 8.44C39.4753 8.44 37.9773 10.05 37.9773 12.248C37.9773 14.586 39.4193 16.14 41.5613 16.14ZM41.4913 9.504C42.6393 9.504 43.3813 10.33 43.4513 11.702H39.4333C39.5873 10.316 40.3573 9.504 41.4913 9.504ZM47.8667 12.206C47.8667 10.568 49.0287 9.868 50.6247 9.952V8.482C49.4067 8.482 48.2867 9.126 47.7687 10.148V8.58H46.4527V16H47.8667V12.206ZM56.0975 16V5.948H54.6695V16H56.0975ZM59.4181 9.07L59.5161 5.948H58.2281L58.3261 9.07H59.4181ZM61.1101 12.29C61.1101 14.516 62.3981 16.14 64.4001 16.14C65.4501 16.14 66.3461 15.608 66.8781 14.67V16H68.1941V8.58H66.8781V9.882C66.3601 8.944 65.5341 8.44 64.4561 8.44C62.4121 8.44 61.1101 10.036 61.1101 12.29ZM62.5801 12.29C62.5801 10.61 63.4481 9.686 64.6801 9.686C65.8561 9.686 66.7801 10.596 66.7801 12.262C66.7801 13.9 65.8841 14.88 64.6801 14.88C63.4481 14.88 62.5801 13.942 62.5801 12.29ZM77.1617 12.29C77.1617 10.036 75.8597 8.44 73.8717 8.44C72.8637 8.44 72.0097 8.944 71.4917 9.854V5.948H70.0777V16H71.3937V14.67C71.9257 15.608 72.8217 16.14 73.8717 16.14C75.8737 16.14 77.1617 14.516 77.1617 12.29ZM75.6917 12.29C75.6917 13.942 74.8097 14.88 73.5917 14.88C72.3877 14.88 71.4917 13.9 71.4917 12.262C71.4917 10.596 72.4157 9.686 73.5917 9.686C74.8097 9.686 75.6917 10.61 75.6917 12.29ZM81.7032 16.14C83.8032 16.14 85.3432 14.488 85.3432 12.29C85.3432 10.092 83.8032 8.44 81.7032 8.44C79.6032 8.44 78.0632 10.092 78.0632 12.29C78.0632 14.488 79.6032 16.14 81.7032 16.14ZM81.7032 14.894C80.4852 14.894 79.5332 13.914 79.5332 12.29C79.5332 10.666 80.4852 9.7 81.7032 9.7C82.9212 9.7 83.8872 10.666 83.8872 12.29C83.8872 13.914 82.9212 14.894 81.7032 14.894ZM88.1987 11.814C88.1987 10.498 89.0107 9.686 89.9767 9.686C91.0267 9.686 91.5867 10.4 91.5867 11.674V16H93.0007V11.198C93.0007 9.42 91.9927 8.44 90.4667 8.44C89.4447 8.44 88.6047 8.986 88.1007 9.812V8.58H86.7847V16H88.1987V11.814ZM96.2924 11.814C96.2924 10.498 97.1044 9.686 98.0704 9.686C99.1204 9.686 99.6804 10.4 99.6804 11.674V16H101.094V11.198C101.094 9.42 100.086 8.44 98.5604 8.44C97.5384 8.44 96.6984 8.986 96.1944 9.812V8.58H94.8784V16H96.2924V11.814ZM106.024 16.14C107.774 16.14 109.048 15.146 109.412 13.494H108.012C107.774 14.46 107.046 15.034 105.996 15.034C104.75 15.034 103.994 14.152 103.882 12.64H109.412C109.664 10.232 108.194 8.44 105.982 8.44C103.938 8.44 102.44 10.05 102.44 12.248C102.44 14.586 103.882 16.14 106.024 16.14ZM105.954 9.504C107.102 9.504 107.844 10.33 107.914 11.702H103.896C104.05 10.316 104.82 9.504 105.954 9.504ZM112.33 16V11.744C112.33 10.498 113.1 9.686 114.08 9.686C115.116 9.686 115.662 10.414 115.662 11.646V16H117.076V11.744C117.076 10.498 117.86 9.686 118.826 9.686C119.862 9.686 120.408 10.414 120.408 11.646V16H121.822V11.198C121.822 9.434 120.842 8.44 119.316 8.44C118.182 8.44 117.328 9.028 116.81 9.98C116.474 9 115.648 8.44 114.556 8.44C113.534 8.44 112.736 8.958 112.232 9.812V8.58H110.916V16H112.33ZM126.764 16.14C128.514 16.14 129.788 15.146 130.152 13.494H128.752C128.514 14.46 127.786 15.034 126.736 15.034C125.49 15.034 124.734 14.152 124.622 12.64H130.152C130.404 10.232 128.934 8.44 126.722 8.44C124.678 8.44 123.18 10.05 123.18 12.248C123.18 14.586 124.622 16.14 126.764 16.14ZM126.694 9.504C127.842 9.504 128.584 10.33 128.654 11.702H124.636C124.79 10.316 125.56 9.504 126.694 9.504ZM133.07 11.814C133.07 10.498 133.882 9.686 134.848 9.686C135.898 9.686 136.458 10.4 136.458 11.674V16H137.872V11.198C137.872 9.42 136.864 8.44 135.338 8.44C134.316 8.44 133.476 8.986 132.972 9.812V8.58H131.656V16H133.07V11.814ZM143.908 14.628C143.614 14.768 143.32 14.824 142.984 14.824C142.228 14.824 141.738 14.46 141.738 13.438V9.784H143.978V8.58H141.738V6.382H140.324V8.58H138.686V9.784H140.324V13.76C140.324 15.398 141.276 16.14 142.648 16.14C143.096 16.14 143.474 16.07 143.908 15.874V14.628Z" fill="#F04438"/>
<path d="M158.833 15.1673L167.166 6.83398M167.166 6.83398H158.833M167.166 6.83398V15.1673" stroke="#F04438" stroke-width="1.67" stroke-linecap="round" stroke-linejoin="round"/>
</svg>
