<svg width="20" height="20" viewBox="0 0 20 20" fill="none" xmlns="http://www.w3.org/2000/svg">
<path d="M9.29295 0.292893C9.68348 -0.0976311 10.3166 -0.0976311 10.7072 0.292893L15.7072 5.29289C16.0977 5.68342 16.0977 6.31658 15.7072 6.70711C15.3166 7.09763 14.6835 7.09763 14.293 6.70711L11.0001 3.41421L11.0001 13C11.0001 13.5523 10.5523 14 10.0001 14C9.44778 14 9.00006 13.5523 9.00006 13L9.00006 3.41421L5.70717 6.70711C5.31664 7.09763 4.68348 7.09763 4.29295 6.70711C3.90243 6.31658 3.90243 5.68342 4.29295 5.29289L9.29295 0.292893Z" fill="#B79A5C"/>
<path d="M6.00009 12C6.55236 12 7.00006 12.4477 7.00006 13C7.00006 14.6569 8.34321 16 10.0001 16C11.6569 16 13.0001 14.6569 13.0001 13C13.0001 12.4477 13.4478 12 14 12H16.6672C16.9717 11.9998 17.2337 11.9997 17.4694 12.037C18.753 12.2403 19.7598 13.2471 19.9631 14.5308C20.0004 14.7664 20.0003 15.0284 20.0001 15.333L20.0001 15.4827C20.0002 15.9596 20.0003 16.3131 19.9508 16.6258C19.6797 18.3374 18.3374 19.6797 16.6258 19.9508C16.313 20.0003 15.9595 20.0002 15.4826 20.0001H4.51754C4.04056 20.0002 3.68707 20.0003 3.37432 19.9508C1.66275 19.6797 0.320389 18.3374 0.0493026 16.6258C-0.000232808 16.313 -0.000117534 15.9595 3.81531e-05 15.4826L2.75435e-05 15.3329C-0.000166648 15.0284 -0.000333659 14.7664 0.0369909 14.5308C0.240305 13.2471 1.24707 12.2403 2.53075 12.037C2.76641 11.9997 3.02842 11.9998 3.33295 12H6.00009Z" fill="#B79A5C"/>
</svg>
