<svg width="17" height="18" viewBox="0 0 17 18" fill="none" xmlns="http://www.w3.org/2000/svg">
<path fill-rule="evenodd" clip-rule="evenodd" d="M13.4753 2.48585C12.6617 1.67225 11.3426 1.67225 10.529 2.48585L3.01601 9.99885C1.6329 11.382 1.6329 13.6244 3.01601 15.0075C4.39912 16.3906 6.64158 16.3906 8.02468 15.0075L15.5377 7.49452C15.8631 7.16908 16.3908 7.16908 16.7162 7.49452C17.0416 7.81996 17.0416 8.34759 16.7162 8.67303L9.20319 16.186C7.16921 18.22 3.87148 18.22 1.8375 16.186C-0.196483 14.1521 -0.196484 10.8543 1.8375 8.82034L9.35051 1.30733C10.815 -0.157132 13.1893 -0.157132 14.6538 1.30733C16.1183 2.7718 16.1183 5.14617 14.6538 6.61063L7.43543 13.829C6.54048 14.724 5.08947 14.724 4.19452 13.829C3.29957 12.9341 3.29957 11.4831 4.19452 10.5881L10.529 4.25361C10.8545 3.92818 11.3821 3.92818 11.7075 4.25361C12.033 4.57905 12.033 5.10669 11.7075 5.43212L5.37303 11.7666C5.12895 12.0107 5.12895 12.4064 5.37303 12.6505C5.61711 12.8946 6.01284 12.8946 6.25692 12.6505L13.4753 5.43212C14.2889 4.61853 14.2889 3.29944 13.4753 2.48585Z" fill="#667085"/>
</svg>
