<svg width="20" height="17" viewBox="0 0 20 17" fill="none" xmlns="http://www.w3.org/2000/svg">
<path d="M13.3337 3.83398H18.3337M13.3337 15.5007V14.5007C13.3337 13.1005 13.3337 12.4005 13.0612 11.8657C12.8215 11.3953 12.439 11.0128 11.9686 10.7731C11.4339 10.5007 10.7338 10.5007 9.33366 10.5007H5.66699C4.26686 10.5007 3.5668 10.5007 3.03202 10.7731C2.56161 11.0128 2.17916 11.3953 1.93948 11.8657C1.66699 12.4005 1.66699 13.1005 1.66699 14.5007V15.5007M10.417 4.25065C10.417 5.86148 9.11116 7.16732 7.50033 7.16732C5.8895 7.16732 4.58366 5.86148 4.58366 4.25065C4.58366 2.63982 5.8895 1.33398 7.50033 1.33398C9.11116 1.33398 10.417 2.63982 10.417 4.25065Z" stroke="black" stroke-width="1.66667" stroke-linecap="round" stroke-linejoin="round"/>
</svg>
