<svg width="24" height="24" viewBox="0 0 24 24" fill="none" xmlns="http://www.w3.org/2000/svg">
<path fill-rule="evenodd" clip-rule="evenodd" d="M13 18.2247C13 18.5881 13.3773 18.8393 13.7182 18.7135C14.959 18.2553 17.7406 17.3745 21.5373 17.0375C21.7979 17.0143 22 16.8035 22 16.5419C22 14.651 22 7.46258 22 5.49819C22 5.22205 21.7785 5.00168 21.5027 5.0152C20.2481 5.07668 16.8035 5.37939 13.2985 6.86977C13.1166 6.94709 13 7.12543 13 7.32303C13 8.9092 13 15.8774 13 18.2247Z" fill="#F8991C"/>
<path opacity="0.3" fill-rule="evenodd" clip-rule="evenodd" d="M11 18.2247C11 18.5881 10.6227 18.8393 10.2818 18.7135C9.04097 18.2553 6.25942 17.3745 2.46271 17.0375C2.20214 17.0143 1.99999 16.8035 1.99999 16.5419C1.99999 14.651 1.99999 7.46258 1.99999 5.49819C1.99999 5.22205 2.22147 5.00168 2.49728 5.0152C3.75193 5.07668 7.19651 5.37939 10.7015 6.86977C10.8834 6.94709 11 7.12543 11 7.32303C11 8.9092 11 15.8774 11 18.2247Z" fill="#F8991C"/>
</svg>
