<svg width="17" height="20" viewBox="0 0 17 20" fill="none" xmlns="http://www.w3.org/2000/svg">
<path d="M14.6663 8.74935V5.66602C14.6663 4.26588 14.6663 3.56582 14.3939 3.03104C14.1542 2.56063 13.7717 2.17818 13.3013 1.9385C12.7665 1.66602 12.0665 1.66602 10.6663 1.66602H5.33301C3.93288 1.66602 3.23281 1.66602 2.69803 1.9385C2.22763 2.17818 1.84517 2.56063 1.60549 3.03104C1.33301 3.56582 1.33301 4.26588 1.33301 5.66602V14.3327C1.33301 15.7328 1.33301 16.4329 1.60549 16.9677C1.84517 17.4381 2.22763 17.8205 2.69803 18.0602C3.23281 18.3327 3.93288 18.3327 5.33301 18.3327H7.99967M9.66634 9.16602H4.66634M6.33301 12.4993H4.66634M11.333 5.83268H4.66634M12.9997 17.4993V12.4993M10.4997 14.9993H15.4997" stroke="white" stroke-width="1.67" stroke-linecap="round" stroke-linejoin="round"/>
</svg>
