<svg width="166" height="23" viewBox="0 0 166 23" fill="none" xmlns="http://www.w3.org/2000/svg">
<path d="M9.296 6.21655H7.756L4.788 14.4766L1.862 6.21655H0.21L3.906 16.2686H5.6L9.296 6.21655ZM12.5509 16.4086C14.6509 16.4086 16.1909 14.7566 16.1909 12.5586C16.1909 10.3606 14.6509 8.70855 12.5509 8.70855C10.4509 8.70855 8.91089 10.3606 8.91089 12.5586C8.91089 14.7566 10.4509 16.4086 12.5509 16.4086ZM12.5509 15.1626C11.3329 15.1626 10.3809 14.1826 10.3809 12.5586C10.3809 10.9346 11.3329 9.96855 12.5509 9.96855C13.7689 9.96855 14.7349 10.9346 14.7349 12.5586C14.7349 14.1826 13.7689 15.1626 12.5509 15.1626ZM19.3543 7.12655C19.3543 6.58055 18.9343 6.18855 18.3323 6.18855C17.7303 6.18855 17.2963 6.58055 17.2963 7.12655C17.2963 7.65855 17.7303 8.06455 18.3323 8.06455C18.9343 8.06455 19.3543 7.65855 19.3543 7.12655ZM19.0463 16.2686V8.84855H17.6323V16.2686H19.0463ZM22.4233 12.4746C22.4233 10.8366 23.5853 10.1366 25.1813 10.2206V8.75055C23.9633 8.75055 22.8433 9.39455 22.3253 10.4166V8.84855H21.0093V16.2686H22.4233V12.4746ZM33.4121 14.8966C33.1181 15.0366 32.8241 15.0926 32.4881 15.0926C31.7321 15.0926 31.2421 14.7286 31.2421 13.7066V10.0526H33.4821V8.84855H31.2421V6.65055H29.8281V8.84855H28.1901V10.0526H29.8281V14.0286C29.8281 15.6666 30.7801 16.4086 32.1521 16.4086C32.6001 16.4086 32.9781 16.3386 33.4121 16.1426V14.8966ZM37.7345 16.4086C39.8345 16.4086 41.3745 14.7566 41.3745 12.5586C41.3745 10.3606 39.8345 8.70855 37.7345 8.70855C35.6345 8.70855 34.0945 10.3606 34.0945 12.5586C34.0945 14.7566 35.6345 16.4086 37.7345 16.4086ZM37.7345 15.1626C36.5165 15.1626 35.5645 14.1826 35.5645 12.5586C35.5645 10.9346 36.5165 9.96855 37.7345 9.96855C38.9525 9.96855 39.9185 10.9346 39.9185 12.5586C39.9185 14.1826 38.9525 15.1626 37.7345 15.1626ZM47.4499 13.2166C47.4499 14.3786 46.6799 15.1626 45.7279 15.1626C44.8039 15.1626 44.1599 14.6306 44.1599 13.3426V8.84855H42.7459V13.6226C42.7459 15.5266 43.7819 16.4086 45.2799 16.4086C46.2879 16.4086 47.1559 15.8626 47.5479 15.0926V16.2686H48.8639V8.84855H47.4499V13.2166ZM55.0137 14.8966C54.7197 15.0366 54.4257 15.0926 54.0897 15.0926C53.3337 15.0926 52.8437 14.7286 52.8437 13.7066V10.0526H55.0837V8.84855H52.8437V6.65055H51.4297V8.84855H49.7917V10.0526H51.4297V14.0286C51.4297 15.6666 52.3817 16.4086 53.7537 16.4086C54.2017 16.4086 54.5797 16.3386 55.0137 16.1426V14.8966ZM59.28 16.4086C61.03 16.4086 62.304 15.4146 62.668 13.7626H61.268C61.03 14.7286 60.302 15.3026 59.252 15.3026C58.006 15.3026 57.25 14.4206 57.138 12.9086H62.668C62.92 10.5006 61.45 8.70855 59.238 8.70855C57.194 8.70855 55.696 10.3186 55.696 12.5166C55.696 14.8546 57.138 16.4086 59.28 16.4086ZM59.21 9.77255C60.358 9.77255 61.1 10.5986 61.17 11.9706H57.152C57.306 10.5846 58.076 9.77255 59.21 9.77255ZM70.0514 14.0566C70.0514 12.9926 69.3514 12.3486 67.8814 12.0826L66.6214 11.8446C65.7254 11.6766 65.3474 11.3966 65.3474 10.7946C65.3474 10.1506 65.9494 9.77255 66.8454 9.77255C67.8394 9.77255 68.4974 10.2906 68.5814 11.1866H69.9394C69.8134 9.66055 68.6094 8.70855 66.8314 8.70855C65.1094 8.70855 63.9754 9.61855 63.9754 10.9206C63.9754 12.0406 64.7454 12.7406 66.1174 13.0066L67.3214 13.2306C68.2454 13.4126 68.6234 13.6786 68.6234 14.2946C68.6234 14.9946 67.9654 15.3446 66.9714 15.3446C65.8374 15.3446 65.0954 14.7706 65.0394 13.8466H63.6814C63.8214 15.4426 64.9834 16.4086 66.9434 16.4086C68.9174 16.4086 70.0514 15.5126 70.0514 14.0566ZM75.949 16.2686V6.21655H74.521V16.2686H75.949ZM80.9636 16.4086C82.7136 16.4086 83.9876 15.4146 84.3516 13.7626H82.9516C82.7136 14.7286 81.9856 15.3026 80.9356 15.3026C79.6896 15.3026 78.9336 14.4206 78.8216 12.9086H84.3516C84.6036 10.5006 83.1336 8.70855 80.9216 8.70855C78.8776 8.70855 77.3796 10.3186 77.3796 12.5166C77.3796 14.8546 78.8216 16.4086 80.9636 16.4086ZM80.8936 9.77255C82.0416 9.77255 82.7836 10.5986 82.8536 11.9706H78.8356C78.9896 10.5846 79.7596 9.77255 80.8936 9.77255ZM91.735 14.0566C91.735 12.9926 91.035 12.3486 89.565 12.0826L88.305 11.8446C87.409 11.6766 87.031 11.3966 87.031 10.7946C87.031 10.1506 87.633 9.77255 88.529 9.77255C89.523 9.77255 90.181 10.2906 90.265 11.1866H91.623C91.497 9.66055 90.293 8.70855 88.515 8.70855C86.793 8.70855 85.659 9.61855 85.659 10.9206C85.659 12.0406 86.429 12.7406 87.801 13.0066L89.005 13.2306C89.929 13.4126 90.307 13.6786 90.307 14.2946C90.307 14.9946 89.649 15.3446 88.655 15.3446C87.521 15.3446 86.779 14.7706 86.723 13.8466H85.365C85.505 15.4426 86.667 16.4086 88.627 16.4086C90.601 16.4086 91.735 15.5126 91.735 14.0566ZM99.9566 8.10655L101.511 6.11855H99.8446L98.4446 8.10655H99.9566ZM99.2566 16.4086C101.007 16.4086 102.281 15.4146 102.645 13.7626H101.245C101.007 14.7286 100.279 15.3026 99.2286 15.3026C97.9826 15.3026 97.2266 14.4206 97.1146 12.9086H102.645C102.897 10.5006 101.427 8.70855 99.2146 8.70855C97.1706 8.70855 95.6726 10.3186 95.6726 12.5166C95.6726 14.8546 97.1146 16.4086 99.2566 16.4086ZM99.1866 9.77255C100.335 9.77255 101.077 10.5986 101.147 11.9706H97.1286C97.2826 10.5846 98.0526 9.77255 99.1866 9.77255ZM106.937 16.4226C108.799 16.4226 110.115 15.2186 110.367 13.2586H108.897C108.729 14.4626 108.001 15.1626 106.951 15.1626C105.733 15.1626 104.935 14.1406 104.935 12.5586C104.935 10.9906 105.733 9.95455 106.951 9.95455C107.987 9.95455 108.729 10.6686 108.883 11.8586H110.367C110.101 9.92655 108.771 8.70855 106.937 8.70855C104.935 8.70855 103.479 10.3186 103.479 12.5586C103.479 14.8266 104.907 16.4226 106.937 16.4226ZM114.83 16.4086C116.93 16.4086 118.47 14.7566 118.47 12.5586C118.47 10.3606 116.93 8.70855 114.83 8.70855C112.73 8.70855 111.19 10.3606 111.19 12.5586C111.19 14.7566 112.73 16.4086 114.83 16.4086ZM114.83 15.1626C113.612 15.1626 112.66 14.1826 112.66 12.5586C112.66 10.9346 113.612 9.96855 114.83 9.96855C116.048 9.96855 117.014 10.9346 117.014 12.5586C117.014 14.1826 116.048 15.1626 114.83 15.1626ZM121.34 16.2686V6.21655H119.912V16.2686H121.34ZM126.354 16.4086C128.104 16.4086 129.378 15.4146 129.742 13.7626H128.342C128.104 14.7286 127.376 15.3026 126.326 15.3026C125.08 15.3026 124.324 14.4206 124.212 12.9086H129.742C129.994 10.5006 128.524 8.70855 126.312 8.70855C124.268 8.70855 122.77 10.3186 122.77 12.5166C122.77 14.8546 124.212 16.4086 126.354 16.4086ZM126.284 9.77255C127.432 9.77255 128.174 10.5986 128.244 11.9706H124.226C124.38 10.5846 125.15 9.77255 126.284 9.77255ZM137.126 14.0566C137.126 12.9926 136.426 12.3486 134.956 12.0826L133.696 11.8446C132.8 11.6766 132.422 11.3966 132.422 10.7946C132.422 10.1506 133.024 9.77255 133.92 9.77255C134.914 9.77255 135.572 10.2906 135.656 11.1866H137.014C136.888 9.66055 135.684 8.70855 133.906 8.70855C132.184 8.70855 131.05 9.61855 131.05 10.9206C131.05 12.0406 131.82 12.7406 133.192 13.0066L134.396 13.2306C135.32 13.4126 135.698 13.6786 135.698 14.2946C135.698 14.9946 135.04 15.3446 134.046 15.3446C132.912 15.3446 132.17 14.7706 132.114 13.8466H130.756C130.896 15.4426 132.058 16.4086 134.018 16.4086C135.992 16.4086 137.126 15.5126 137.126 14.0566Z" fill="#B79A5C"/>
<path d="M151.833 15.4349L160.166 7.10156M160.166 7.10156H151.833M160.166 7.10156V15.4349" stroke="#B79A5C" stroke-width="1.67" stroke-linecap="round" stroke-linejoin="round"/>
</svg>
