<svg width="15" height="14" viewBox="0 0 15 14" fill="none" xmlns="http://www.w3.org/2000/svg">
<path fill-rule="evenodd" clip-rule="evenodd" d="M9.83366 0.583984C10.1558 0.583984 10.417 0.845152 10.417 1.16732V1.7516C10.6943 1.75351 10.9368 1.75924 11.1472 1.77643C11.4751 1.80322 11.7765 1.86072 12.0596 2.00497C12.4987 2.22867 12.8556 2.58563 13.0793 3.02467C13.2236 3.30779 13.2811 3.6092 13.3079 3.93709C13.3337 4.25278 13.3337 4.64032 13.3337 5.10988V10.0581C13.3337 10.5276 13.3337 10.9152 13.3079 11.2309C13.2811 11.5588 13.2236 11.8602 13.0793 12.1433C12.8556 12.5823 12.4987 12.9393 12.0596 13.163C11.7765 13.3073 11.4751 13.3647 11.1472 13.3915C10.8315 13.4173 10.444 13.4173 9.97443 13.4173H5.02622C4.55666 13.4173 4.16912 13.4173 3.85343 13.3915C3.52554 13.3647 3.22413 13.3073 2.94102 13.163C2.50197 12.9393 2.14502 12.5823 1.92131 12.1433C1.77706 11.8602 1.71956 11.5588 1.69277 11.2309C1.66698 10.9152 1.66699 10.5276 1.66699 10.0581V5.10989C1.66699 4.64033 1.66698 4.25278 1.69277 3.93709C1.71956 3.6092 1.77706 3.30779 1.92131 3.02467C2.14502 2.58563 2.50197 2.22867 2.94102 2.00497C3.22413 1.86072 3.52554 1.80322 3.85343 1.77643C4.0639 1.75924 4.3063 1.75351 4.58366 1.7516V1.16732C4.58366 0.845152 4.84483 0.583984 5.16699 0.583984C5.48916 0.583984 5.75033 0.845152 5.75033 1.16732V1.75065H9.25033V1.16732C9.25033 0.845152 9.51149 0.583984 9.83366 0.583984ZM4.58366 2.91835V3.50065C4.58366 3.82282 4.84483 4.08398 5.16699 4.08398C5.48916 4.08398 5.75033 3.82282 5.75033 3.50065V2.91732H9.25033V3.50065C9.25033 3.82282 9.51149 4.08398 9.83366 4.08398C10.1558 4.08398 10.417 3.82282 10.417 3.50065V2.91835C10.6769 2.92017 10.881 2.92523 11.0522 2.93922C11.308 2.96012 11.4387 2.99799 11.53 3.04448C11.7495 3.15633 11.928 3.33481 12.0398 3.55433C12.0863 3.64556 12.1242 3.77635 12.1451 4.03209C12.1665 4.29464 12.167 4.63431 12.167 5.13399V5.25065H2.83366V5.13398C2.83366 4.63431 2.83411 4.29464 2.85556 4.03209C2.87646 3.77635 2.91433 3.64556 2.96082 3.55433C3.07267 3.33481 3.25115 3.15633 3.47067 3.04448C3.5619 2.99799 3.69269 2.96012 3.94843 2.93922C4.11969 2.92523 4.32377 2.92017 4.58366 2.91835Z" fill="#2E2C34"/>
</svg>
