<svg width="56" height="56" viewBox="0 0 56 56" fill="none" xmlns="http://www.w3.org/2000/svg">
<rect x="4" y="4" width="48" height="48" rx="24" fill="#F2F4F7"/>
<path fill-rule="evenodd" clip-rule="evenodd" d="M22.7587 19.0002L27 19.0002C27.5523 19.0002 28 19.4479 28 20.0002C28 20.5525 27.5523 21.0002 27 21.0002H22.8C21.9434 21.0002 21.3611 21.001 20.911 21.0378C20.4726 21.0736 20.2484 21.1385 20.092 21.2182C19.7157 21.41 19.4097 21.7159 19.218 22.0922C19.1383 22.2486 19.0734 22.4728 19.0376 22.9113C19.0008 23.3614 19 23.9436 19 24.8002V33.2002C19 34.0568 19.0008 34.6391 19.0376 35.0892C19.0734 35.5276 19.1383 35.7518 19.218 35.9082C19.4097 36.2845 19.7157 36.5905 20.092 36.7822C20.2484 36.8619 20.4726 36.9269 20.911 36.9627C21.3611 36.9994 21.9434 37.0002 22.8 37.0002H31.2C32.0566 37.0002 32.6389 36.9994 33.089 36.9627C33.5274 36.9269 33.7516 36.8619 33.908 36.7822C34.2843 36.5905 34.5903 36.2845 34.782 35.9082C34.8617 35.7518 34.9266 35.5276 34.9624 35.0892C34.9992 34.6391 35 34.0568 35 33.2002V29.0002C35 28.4479 35.4477 28.0002 36 28.0002C36.5523 28.0002 37 28.4479 37 29.0002V33.2416C37 34.0465 37 34.7109 36.9558 35.2521C36.9099 35.8142 36.8113 36.3309 36.564 36.8162C36.1805 37.5688 35.5686 38.1808 34.816 38.5643C34.3306 38.8115 33.8139 38.9101 33.2518 38.956C32.7106 39.0002 32.0463 39.0002 31.2413 39.0002H22.7587C21.9537 39.0002 21.2894 39.0002 20.7482 38.956C20.1861 38.9101 19.6694 38.8115 19.184 38.5643C18.4314 38.1808 17.8195 37.5688 17.436 36.8162C17.1887 36.3309 17.0901 35.8142 17.0442 35.2521C17 34.7109 17 34.0465 17 33.2415V24.7589C17 23.954 17 23.2896 17.0442 22.7484C17.0901 22.1863 17.1887 21.6696 17.436 21.1843C17.8195 20.4316 18.4314 19.8197 19.184 19.4362C19.6694 19.1889 20.1861 19.0903 20.7482 19.0444C21.2894 19.0002 21.9537 19.0002 22.7587 19.0002Z" fill="#B79A5C"/>
<path fill-rule="evenodd" clip-rule="evenodd" d="M33.7929 17.7931C35.0118 16.5742 36.9882 16.5742 38.2071 17.7931C39.4261 19.0121 39.4261 20.9884 38.2071 22.2073L28.6444 31.7701C28.6246 31.7899 28.605 31.8095 28.5855 31.829C28.298 32.117 28.0446 32.3709 27.7391 32.5581C27.4707 32.7226 27.178 32.8438 26.8719 32.9173C26.5235 33.001 26.1647 33.0007 25.7578 33.0003C25.7303 33.0003 25.7025 33.0002 25.6745 33.0002H24C23.4477 33.0002 23 32.5525 23 32.0002V30.3257C23 30.2977 22.9999 30.27 22.9999 30.2424C22.9995 29.8355 22.9992 29.4768 23.0829 29.1283C23.1564 28.8222 23.2776 28.5296 23.4421 28.2612C23.6293 27.9556 23.8832 27.7022 24.1712 27.4147C24.1907 27.3953 24.2103 27.3757 24.2301 27.3559L33.7929 17.7931Z" fill="#B79A5C"/>
<rect x="4" y="4" width="48" height="48" rx="24" stroke="#F9FAFB" stroke-width="8"/>
</svg>
