<svg width="20" height="20" viewBox="0 0 20 20" fill="none" xmlns="http://www.w3.org/2000/svg">
<path fill-rule="evenodd" clip-rule="evenodd" d="M5.63193 2.50019L9.16634 2.50019C9.62658 2.50019 9.99968 2.87329 9.99968 3.33352C9.99968 3.79376 9.62658 4.16686 9.16634 4.16686H5.66634C4.95253 4.16686 4.46728 4.1675 4.09221 4.19815C3.72686 4.228 3.54002 4.2821 3.40969 4.34851C3.09609 4.5083 2.84112 4.76327 2.68133 5.07687C2.61492 5.20721 2.56082 5.39404 2.53097 5.75939C2.50032 6.13446 2.49968 6.61971 2.49968 7.33352V14.3335C2.49968 15.0473 2.50032 15.5326 2.53097 15.9077C2.56082 16.273 2.61492 16.4598 2.68133 16.5902C2.84112 16.9038 3.09609 17.1587 3.40969 17.3185C3.54002 17.3849 3.72686 17.439 4.09221 17.4689C4.46728 17.4995 4.95253 17.5002 5.66634 17.5002H12.6663C13.3802 17.5002 13.8654 17.4995 14.2405 17.4689C14.6058 17.439 14.7927 17.3849 14.923 17.3185C15.2366 17.1587 15.4916 16.9038 15.6514 16.5902C15.7178 16.4598 15.7719 16.273 15.8017 15.9077C15.8324 15.5326 15.833 15.0473 15.833 14.3335V10.8335C15.833 10.3733 16.2061 10.0002 16.6663 10.0002C17.1266 10.0002 17.4997 10.3733 17.4997 10.8335V14.368C17.4997 15.0388 17.4997 15.5924 17.4628 16.0434C17.4246 16.5118 17.3424 16.9424 17.1364 17.3468C16.8168 17.974 16.3069 18.484 15.6796 18.8035C15.2752 19.0096 14.8446 19.0918 14.3762 19.13C13.9252 19.1669 13.3716 19.1669 12.7008 19.1669H5.63191C4.96111 19.1669 4.40748 19.1669 3.95649 19.13C3.48807 19.0918 3.05749 19.0096 2.65304 18.8035C2.02583 18.484 1.5159 17.974 1.19632 17.3468C0.990244 16.9424 0.908108 16.5118 0.869837 16.0434C0.832989 15.5924 0.832998 15.0387 0.833008 14.3679V7.29911C0.832998 6.6283 0.832989 6.07466 0.869837 5.62367C0.908108 5.15525 0.990245 4.72467 1.19632 4.32022C1.5159 3.69301 2.02583 3.18308 2.65304 2.8635C3.05749 2.65743 3.48807 2.57529 3.95649 2.53702C4.40748 2.50017 4.96112 2.50018 5.63193 2.50019Z" fill="#2E2C34"/>
<path fill-rule="evenodd" clip-rule="evenodd" d="M14.8271 1.49426C15.8429 0.478473 17.4898 0.478475 18.5056 1.49427C19.5214 2.51006 19.5214 4.15699 18.5056 5.17278L10.5366 13.1417C10.5201 13.1582 10.5038 13.1746 10.4876 13.1909C10.248 13.4308 10.0368 13.6424 9.78223 13.7985C9.55855 13.9355 9.31469 14.0365 9.0596 14.0978C8.76923 14.1675 8.47027 14.1672 8.13119 14.1669C8.10824 14.1669 8.0851 14.1669 8.06177 14.1669H6.66632C6.20608 14.1669 5.83299 13.7938 5.83299 13.3335V11.9381C5.83299 11.9148 5.83297 11.8916 5.83294 11.8687C5.83263 11.5296 5.83235 11.2306 5.90206 10.9403C5.9633 10.6852 6.06432 10.4413 6.20139 10.2176C6.35742 9.96302 6.56901 9.75182 6.809 9.51227C6.82524 9.49606 6.84162 9.47972 6.85812 9.46322L14.8271 1.49426Z" fill="#2E2C34"/>
</svg>
