<svg width="46" height="47" viewBox="0 0 46 47" fill="none" xmlns="http://www.w3.org/2000/svg">
<rect x="3" y="3.5" width="40" height="40" rx="20" fill="#F2F4F7"/>
<path d="M22.4111 15.4101C22.7365 15.0847 23.2641 15.0847 23.5896 15.4101L27.7562 19.5768C28.0817 19.9022 28.0817 20.4298 27.7562 20.7553C27.4308 21.0807 26.9032 21.0807 26.5777 20.7553L23.8337 18.0112L23.8337 25.9993C23.8337 26.4596 23.4606 26.8327 23.0003 26.8327C22.5401 26.8327 22.167 26.4596 22.167 25.9993L22.167 18.0112L19.4229 20.7553C19.0975 21.0807 18.5698 21.0807 18.2444 20.7553C17.919 20.4298 17.919 19.9022 18.2444 19.5768L22.4111 15.4101Z" fill="black"/>
<path d="M15.5003 25.166C15.9606 25.166 16.3337 25.5391 16.3337 25.9993V26.9993C16.3337 27.7132 16.3343 28.1984 16.365 28.5735C16.3948 28.9388 16.4489 29.1257 16.5153 29.256C16.6751 29.5696 16.9301 29.8246 17.2437 29.9844C17.374 30.0508 17.5608 30.1049 17.9262 30.1347C18.3013 30.1654 18.7865 30.166 19.5003 30.166H26.5003C27.2141 30.166 27.6994 30.1654 28.0745 30.1347C28.4398 30.1049 28.6266 30.0508 28.757 29.9844C29.0706 29.8246 29.3255 29.5696 29.4853 29.256C29.5517 29.1257 29.6058 28.9388 29.6357 28.5735C29.6663 28.1984 29.667 27.7132 29.667 26.9993V25.9993C29.667 25.5391 30.0401 25.166 30.5003 25.166C30.9606 25.166 31.3337 25.5391 31.3337 25.9993V27.0338C31.3337 27.7046 31.3337 28.2582 31.2968 28.7092C31.2586 29.1776 31.1764 29.6082 30.9703 30.0127C30.6508 30.6399 30.1408 31.1498 29.5136 31.4694C29.1092 31.6754 28.6786 31.7576 28.2102 31.7959C27.7592 31.8327 27.2056 31.8327 26.5347 31.8327H19.4659C18.7951 31.8327 18.2415 31.8327 17.7905 31.7959C17.3221 31.7576 16.8915 31.6754 16.487 31.4694C15.8598 31.1498 15.3499 30.6399 15.0303 30.0127C14.8242 29.6082 14.7421 29.1776 14.7038 28.7092C14.667 28.2582 14.667 27.7046 14.667 27.0338V25.9993C14.667 25.5391 15.0401 25.166 15.5003 25.166Z" fill="black"/>
<rect x="3" y="3.5" width="40" height="40" rx="20" stroke="#F9FAFB" stroke-width="6"/>
</svg>
