<svg width="240" height="28" viewBox="0 0 240 28" fill="none" xmlns="http://www.w3.org/2000/svg">
<path d="M7.902 21.216C8.838 21.216 9.708 21.048 10.512 20.712C11.328 20.364 12.042 19.884 12.654 19.272C13.266 18.648 13.746 17.916 14.094 17.076C14.442 16.224 14.616 15.294 14.616 14.286C14.616 13.278 14.442 12.354 14.094 11.514C13.746 10.674 13.266 9.948 12.654 9.336C12.042 8.712 11.328 8.232 10.512 7.896C9.708 7.548 8.838 7.374 7.902 7.374C6.966 7.374 6.09 7.542 5.274 7.878C4.47 8.214 3.762 8.694 3.15 9.318C2.538 9.93 2.058 10.662 1.71 11.514C1.362 12.354 1.188 13.278 1.188 14.286C1.188 15.294 1.362 16.224 1.71 17.076C2.058 17.916 2.538 18.648 3.15 19.272C3.762 19.884 4.47 20.364 5.274 20.712C6.09 21.048 6.966 21.216 7.902 21.216ZM7.902 19.866C6.87 19.866 5.958 19.614 5.166 19.11C4.374 18.606 3.75 17.934 3.294 17.094C2.85 16.242 2.628 15.306 2.628 14.286C2.628 13.53 2.754 12.816 3.006 12.144C3.27 11.472 3.636 10.878 4.104 10.362C4.572 9.846 5.124 9.444 5.76 9.156C6.408 8.868 7.122 8.724 7.902 8.724C8.682 8.724 9.39 8.868 10.026 9.156C10.674 9.444 11.232 9.846 11.7 10.362C12.168 10.878 12.528 11.472 12.78 12.144C13.044 12.816 13.176 13.53 13.176 14.286C13.176 15.306 12.948 16.242 12.492 17.094C12.048 17.934 11.43 18.606 10.638 19.11C9.846 19.614 8.934 19.866 7.902 19.866ZM20.6087 21.216C21.2087 21.216 21.7487 21.09 22.2287 20.838C22.7087 20.586 23.0927 20.244 23.3807 19.812V21H24.7307V11.352H23.3807V17.094C23.3807 17.958 23.1407 18.636 22.6607 19.128C22.1927 19.62 21.5867 19.866 20.8427 19.866C20.1107 19.866 19.5107 19.632 19.0427 19.164C18.5747 18.684 18.3407 18.054 18.3407 17.274V11.352H16.9907V17.436C16.9907 18.18 17.1467 18.84 17.4587 19.416C17.7827 19.98 18.2207 20.424 18.7727 20.748C19.3247 21.06 19.9367 21.216 20.6087 21.216ZM34.9217 21.216C35.6657 21.216 36.3497 21.06 36.9737 20.748C37.5977 20.436 38.0897 19.998 38.4497 19.434V21H39.7997V7.374H38.4497V12.81C38.0537 12.294 37.5557 11.886 36.9557 11.586C36.3557 11.286 35.6777 11.136 34.9217 11.136C34.0097 11.136 33.1937 11.358 32.4737 11.802C31.7657 12.234 31.2017 12.828 30.7817 13.584C30.3737 14.34 30.1697 15.204 30.1697 16.176C30.1697 17.136 30.3737 18 30.7817 18.768C31.2017 19.524 31.7717 20.124 32.4917 20.568C33.2117 21 34.0217 21.216 34.9217 21.216ZM34.9937 19.866C34.3457 19.866 33.7637 19.704 33.2477 19.38C32.7437 19.056 32.3417 18.618 32.0417 18.066C31.7537 17.502 31.6097 16.872 31.6097 16.176C31.6097 15.468 31.7537 14.838 32.0417 14.286C32.3417 13.734 32.7497 13.296 33.2657 12.972C33.7817 12.648 34.3577 12.486 34.9937 12.486C35.6417 12.486 36.2237 12.648 36.7397 12.972C37.2677 13.296 37.6817 13.74 37.9817 14.304C38.2937 14.856 38.4497 15.48 38.4497 16.176C38.4497 16.872 38.2937 17.502 37.9817 18.066C37.6817 18.618 37.2677 19.056 36.7397 19.38C36.2237 19.704 35.6417 19.866 34.9937 19.866ZM46.9635 21.216C47.6235 21.216 48.2235 21.108 48.7635 20.892C49.3155 20.664 49.7895 20.37 50.1855 20.01C50.5815 19.638 50.8755 19.236 51.0675 18.804L49.9155 18.192C49.6155 18.696 49.2255 19.116 48.7455 19.452C48.2655 19.788 47.6715 19.956 46.9635 19.956C46.3875 19.956 45.8475 19.818 45.3435 19.542C44.8395 19.266 44.4255 18.882 44.1015 18.39C43.7895 17.886 43.6215 17.286 43.5975 16.59H51.1935C51.2175 16.434 51.2355 16.284 51.2475 16.14C51.2595 15.984 51.2655 15.846 51.2655 15.726C51.2655 15.15 51.1635 14.592 50.9595 14.052C50.7555 13.5 50.4615 13.008 50.0775 12.576C49.6935 12.132 49.2255 11.784 48.6735 11.532C48.1335 11.268 47.5155 11.136 46.8195 11.136C45.9435 11.136 45.1515 11.352 44.4435 11.784C43.7475 12.216 43.1955 12.81 42.7875 13.566C42.3795 14.31 42.1755 15.168 42.1755 16.14C42.1755 17.112 42.3855 17.982 42.8055 18.75C43.2255 19.518 43.7955 20.124 44.5155 20.568C45.2475 21 46.0635 21.216 46.9635 21.216ZM46.8195 12.396C47.3595 12.396 47.8515 12.522 48.2955 12.774C48.7515 13.026 49.1115 13.374 49.3755 13.818C49.6515 14.25 49.7955 14.754 49.8075 15.33H43.6335C43.7055 14.73 43.8915 14.214 44.1915 13.782C44.5035 13.338 44.8875 12.996 45.3435 12.756C45.7995 12.516 46.2915 12.396 46.8195 12.396ZM46.0455 9.48H47.4135L49.4655 6.78H47.6115L46.0455 9.48ZM58.0558 21.216C58.6558 21.216 59.2198 21.108 59.7478 20.892C60.2758 20.676 60.7438 20.382 61.1518 20.01C61.5598 19.638 61.8658 19.218 62.0698 18.75L60.8458 18.084C60.5938 18.624 60.2218 19.056 59.7298 19.38C59.2498 19.704 58.6918 19.866 58.0558 19.866C57.4198 19.866 56.8438 19.704 56.3278 19.38C55.8238 19.056 55.4218 18.618 55.1218 18.066C54.8338 17.502 54.6898 16.872 54.6898 16.176C54.6898 15.468 54.8338 14.838 55.1218 14.286C55.4218 13.722 55.8238 13.284 56.3278 12.972C56.8438 12.648 57.4198 12.486 58.0558 12.486C58.6918 12.486 59.2558 12.648 59.7478 12.972C60.2398 13.296 60.6058 13.716 60.8458 14.232L62.0698 13.602C61.8658 13.122 61.5598 12.702 61.1518 12.342C60.7438 11.97 60.2758 11.676 59.7478 11.46C59.2198 11.244 58.6558 11.136 58.0558 11.136C57.1078 11.136 56.2738 11.358 55.5538 11.802C54.8338 12.234 54.2698 12.828 53.8618 13.584C53.4538 14.34 53.2498 15.198 53.2498 16.158C53.2498 17.118 53.4538 17.982 53.8618 18.75C54.2698 19.506 54.8338 20.106 55.5538 20.55C56.2738 20.994 57.1078 21.216 58.0558 21.216ZM64.4387 21H65.7887V7.374H64.4387V21ZM68.552 9.57H69.902V7.59H68.552V9.57ZM68.552 21H69.902V11.352H68.552V21ZM72.6653 21H74.0153V15.258C74.0153 14.394 74.2553 13.716 74.7353 13.224C75.2153 12.732 75.8213 12.486 76.5533 12.486C77.2973 12.486 77.8973 12.732 78.3533 13.224C78.8213 13.704 79.0553 14.382 79.0553 15.258V21H80.4053V14.736C80.4053 14.052 80.2433 13.44 79.9193 12.9C79.6073 12.348 79.1753 11.916 78.6233 11.604C78.0833 11.292 77.4713 11.136 76.7873 11.136C76.1873 11.136 75.6473 11.262 75.1673 11.514C74.6873 11.766 74.3033 12.108 74.0153 12.54V11.352H72.6653V21ZM87.3757 21.216C88.0357 21.216 88.6357 21.108 89.1757 20.892C89.7277 20.664 90.2017 20.37 90.5977 20.01C90.9937 19.638 91.2877 19.236 91.4797 18.804L90.3277 18.192C90.0277 18.696 89.6377 19.116 89.1577 19.452C88.6777 19.788 88.0837 19.956 87.3757 19.956C86.7997 19.956 86.2597 19.818 85.7557 19.542C85.2517 19.266 84.8377 18.882 84.5137 18.39C84.2017 17.886 84.0337 17.286 84.0097 16.59H91.6057C91.6297 16.434 91.6477 16.284 91.6597 16.14C91.6717 15.984 91.6777 15.846 91.6777 15.726C91.6777 15.15 91.5757 14.592 91.3717 14.052C91.1677 13.5 90.8737 13.008 90.4897 12.576C90.1057 12.132 89.6377 11.784 89.0857 11.532C88.5457 11.268 87.9277 11.136 87.2317 11.136C86.3557 11.136 85.5637 11.352 84.8557 11.784C84.1597 12.216 83.6077 12.81 83.1997 13.566C82.7917 14.31 82.5877 15.168 82.5877 16.14C82.5877 17.112 82.7977 17.982 83.2177 18.75C83.6377 19.518 84.2077 20.124 84.9277 20.568C85.6597 21 86.4757 21.216 87.3757 21.216ZM87.2317 12.396C87.7717 12.396 88.2637 12.522 88.7077 12.774C89.1637 13.026 89.5237 13.374 89.7877 13.818C90.0637 14.25 90.2077 14.754 90.2197 15.33H84.0457C84.1177 14.73 84.3037 14.214 84.6037 13.782C84.9157 13.338 85.2997 12.996 85.7557 12.756C86.2117 12.516 86.7037 12.396 87.2317 12.396ZM93.0679 21H100.358V19.65H94.9219L100.322 12.522V11.352H93.3739V12.702H98.4859L93.0679 19.83V21ZM105.202 21H106.552V7.374H105.202V21ZM109.64 11.514H110.63L110.846 7.59H109.406L109.64 11.514ZM113.728 9.57H115.078V7.59H113.728V9.57ZM113.728 21H115.078V11.352H113.728V21ZM117.841 21H119.191V15.258C119.191 14.394 119.431 13.716 119.911 13.224C120.391 12.732 120.997 12.486 121.729 12.486C122.473 12.486 123.073 12.732 123.529 13.224C123.997 13.704 124.231 14.382 124.231 15.258V21H125.581V14.736C125.581 14.052 125.419 13.44 125.095 12.9C124.783 12.348 124.351 11.916 123.799 11.604C123.259 11.292 122.647 11.136 121.963 11.136C121.363 11.136 120.823 11.262 120.343 11.514C119.863 11.766 119.479 12.108 119.191 12.54V11.352H117.841V21ZM130.558 21H131.908L135.706 11.352H134.176L131.242 19.164L128.308 11.352H126.796L130.558 21ZM137.282 9.57H138.632V7.59H137.282V9.57ZM137.282 21H138.632V11.352H137.282V21ZM145.086 21.108C145.194 21.108 145.338 21.096 145.518 21.072C145.698 21.06 145.86 21.036 146.004 21V19.794C145.908 19.806 145.794 19.818 145.662 19.83C145.53 19.842 145.416 19.848 145.32 19.848C144.72 19.848 144.306 19.692 144.078 19.38C143.85 19.068 143.736 18.672 143.736 18.192V12.702H145.86V11.352H143.736V9.12H142.386V9.93C142.386 10.338 142.266 10.68 142.026 10.956C141.786 11.22 141.462 11.352 141.054 11.352H140.604V12.702H142.386V18.192C142.386 19.128 142.62 19.848 143.088 20.352C143.556 20.856 144.222 21.108 145.086 21.108ZM150.989 21.216C151.733 21.216 152.405 21.066 153.005 20.766C153.605 20.466 154.061 20.082 154.373 19.614V21H155.723V14.376C155.723 13.74 155.567 13.182 155.255 12.702C154.955 12.21 154.529 11.826 153.977 11.55C153.437 11.274 152.813 11.136 152.104 11.136C151.565 11.136 151.043 11.238 150.539 11.442C150.035 11.634 149.585 11.898 149.188 12.234C148.805 12.57 148.523 12.942 148.343 13.35L149.567 14.016C149.783 13.548 150.113 13.17 150.557 12.882C151.001 12.582 151.517 12.432 152.104 12.432C152.777 12.432 153.323 12.612 153.743 12.972C154.163 13.332 154.373 13.8 154.373 14.376V14.88L150.881 15.456C149.813 15.636 149.033 16.002 148.541 16.554C148.049 17.106 147.803 17.754 147.803 18.498C147.803 19.026 147.941 19.494 148.217 19.902C148.493 20.31 148.871 20.634 149.351 20.874C149.831 21.102 150.377 21.216 150.989 21.216ZM149.243 18.444C149.243 18 149.393 17.616 149.693 17.292C150.005 16.968 150.509 16.746 151.205 16.626L154.373 16.104V16.824C154.373 17.412 154.235 17.946 153.959 18.426C153.683 18.906 153.299 19.29 152.807 19.578C152.315 19.854 151.739 19.992 151.079 19.992C150.539 19.992 150.095 19.842 149.747 19.542C149.411 19.242 149.243 18.876 149.243 18.444ZM162.014 21.108C162.122 21.108 162.266 21.096 162.446 21.072C162.626 21.06 162.788 21.036 162.932 21V19.794C162.836 19.806 162.722 19.818 162.59 19.83C162.458 19.842 162.344 19.848 162.248 19.848C161.648 19.848 161.234 19.692 161.006 19.38C160.778 19.068 160.664 18.672 160.664 18.192V12.702H162.788V11.352H160.664V9.12H159.313V9.93C159.313 10.338 159.194 10.68 158.954 10.956C158.714 11.22 158.39 11.352 157.982 11.352H157.531V12.702H159.313V18.192C159.313 19.128 159.548 19.848 160.016 20.352C160.484 20.856 161.15 21.108 162.014 21.108ZM165.302 9.57H166.652V7.59H165.302V9.57ZM165.302 21H166.652V11.352H165.302V21ZM173.933 21.216C174.833 21.216 175.649 21 176.381 20.568C177.125 20.136 177.719 19.542 178.163 18.786C178.607 18.018 178.829 17.142 178.829 16.158C178.829 15.186 178.613 14.322 178.181 13.566C177.761 12.81 177.179 12.216 176.435 11.784C175.703 11.352 174.869 11.136 173.933 11.136C172.997 11.136 172.157 11.358 171.413 11.802C170.681 12.234 170.099 12.828 169.667 13.584C169.235 14.34 169.019 15.198 169.019 16.158C169.019 17.13 169.235 18 169.667 18.768C170.111 19.524 170.705 20.124 171.449 20.568C172.193 21 173.021 21.216 173.933 21.216ZM173.933 19.866C173.285 19.866 172.697 19.704 172.169 19.38C171.653 19.056 171.239 18.612 170.927 18.048C170.615 17.484 170.459 16.854 170.459 16.158C170.459 15.462 170.615 14.838 170.927 14.286C171.239 13.734 171.653 13.296 172.169 12.972C172.697 12.648 173.285 12.486 173.933 12.486C174.581 12.486 175.163 12.648 175.679 12.972C176.207 13.296 176.621 13.734 176.921 14.286C177.233 14.838 177.389 15.462 177.389 16.158C177.389 16.854 177.233 17.484 176.921 18.048C176.621 18.612 176.207 19.056 175.679 19.38C175.163 19.704 174.581 19.866 173.933 19.866ZM181.21 21H182.56V15.258C182.56 14.394 182.8 13.716 183.28 13.224C183.76 12.732 184.366 12.486 185.098 12.486C185.842 12.486 186.442 12.732 186.898 13.224C187.366 13.704 187.6 14.382 187.6 15.258V21H188.95V14.736C188.95 14.052 188.788 13.44 188.464 12.9C188.152 12.348 187.72 11.916 187.168 11.604C186.628 11.292 186.016 11.136 185.332 11.136C184.732 11.136 184.192 11.262 183.712 11.514C183.232 11.766 182.848 12.108 182.56 12.54V11.352H181.21V21Z" fill="#12141D" fill-opacity="0.7"/>
<path d="M194.587 9.57H195.937V7.59H194.587V9.57ZM194.587 21H195.937V11.352H194.587V21ZM203.11 21.216C203.71 21.216 204.274 21.108 204.802 20.892C205.33 20.676 205.798 20.382 206.206 20.01C206.614 19.638 206.92 19.218 207.124 18.75L205.9 18.084C205.648 18.624 205.276 19.056 204.784 19.38C204.304 19.704 203.746 19.866 203.11 19.866C202.474 19.866 201.898 19.704 201.382 19.38C200.878 19.056 200.476 18.618 200.176 18.066C199.888 17.502 199.744 16.872 199.744 16.176C199.744 15.468 199.888 14.838 200.176 14.286C200.476 13.722 200.878 13.284 201.382 12.972C201.898 12.648 202.474 12.486 203.11 12.486C203.746 12.486 204.31 12.648 204.802 12.972C205.294 13.296 205.66 13.716 205.9 14.232L207.124 13.602C206.92 13.122 206.614 12.702 206.206 12.342C205.798 11.97 205.33 11.676 204.802 11.46C204.274 11.244 203.71 11.136 203.11 11.136C202.162 11.136 201.328 11.358 200.608 11.802C199.888 12.234 199.324 12.828 198.916 13.584C198.508 14.34 198.304 15.198 198.304 16.158C198.304 17.118 198.508 17.982 198.916 18.75C199.324 19.506 199.888 20.106 200.608 20.55C201.328 20.994 202.162 21.216 203.11 21.216ZM209.493 9.57H210.843V7.59H209.493V9.57ZM209.493 21H210.843V11.352H209.493V21Z" fill="#F04438"/>
<path d="M193.201 24.15H212.229V24.87H193.201V24.15Z" fill="#F04438"/>
<path d="M222 20L234 8M234 8H226M234 8V16" stroke="#F04438" stroke-width="2" stroke-linecap="round" stroke-linejoin="round"/>
</svg>
