<svg width="48" height="48" viewBox="0 0 48 48" fill="none" xmlns="http://www.w3.org/2000/svg">
<rect width="48" height="48" rx="10" fill="#E0EAFF"/>
<path d="M20.6699 30.5H26.6699M18.2699 14H29.0699C29.63 14 29.91 14 30.1239 14.109C30.3121 14.2049 30.4651 14.3578 30.5609 14.546C30.6699 14.7599 30.6699 15.0399 30.6699 15.6V17.6745C30.6699 18.1637 30.6699 18.4083 30.6147 18.6385C30.5657 18.8425 30.4849 19.0376 30.3752 19.2166C30.2515 19.4184 30.0786 19.5914 29.7327 19.9373L26.8013 22.8686C26.4053 23.2646 26.2073 23.4627 26.1331 23.691C26.0678 23.8918 26.0678 24.1082 26.1331 24.309C26.2073 24.5373 26.4053 24.7354 26.8013 25.1314L29.7327 28.0627C30.0786 28.4086 30.2515 28.5816 30.3752 28.7834C30.4849 28.9624 30.5657 29.1575 30.6147 29.3615C30.6699 29.5917 30.6699 29.8363 30.6699 30.3255V32.4C30.6699 32.9601 30.6699 33.2401 30.5609 33.454C30.4651 33.6422 30.3121 33.7951 30.1239 33.891C29.91 34 29.63 34 29.0699 34H18.2699C17.7099 34 17.4298 34 17.2159 33.891C17.0278 33.7951 16.8748 33.6422 16.7789 33.454C16.6699 33.2401 16.6699 32.9601 16.6699 32.4V30.3255C16.6699 29.8363 16.6699 29.5917 16.7252 29.3615C16.7742 29.1575 16.855 28.9624 16.9646 28.7834C17.0883 28.5816 17.2613 28.4086 17.6072 28.0627L20.5386 25.1314C20.9346 24.7354 21.1326 24.5373 21.2068 24.309C21.272 24.1082 21.272 23.8918 21.2068 23.691C21.1326 23.4627 20.9346 23.2646 20.5386 22.8686L17.6072 19.9373C17.2613 19.5914 17.0883 19.4184 16.9646 19.2166C16.855 19.0376 16.7742 18.8425 16.7252 18.6385C16.6699 18.4083 16.6699 18.1637 16.6699 17.6745V15.6C16.6699 15.0399 16.6699 14.7599 16.7789 14.546C16.8748 14.3578 17.0278 14.2049 17.2159 14.109C17.4298 14 17.7099 14 18.2699 14Z" stroke="#6172F3" stroke-width="2" stroke-linecap="round" stroke-linejoin="round"/>
</svg>
