<svg width="24" height="25" viewBox="0 0 24 25" fill="none" xmlns="http://www.w3.org/2000/svg">
<path fill-rule="evenodd" clip-rule="evenodd" d="M17 3.01172H7C4.23858 3.01172 2 5.2503 2 8.01172V16.0117C2 18.7731 4.23858 21.0117 7 21.0117H16.9919L17.2087 21.0069C19.8687 20.8911 21.9901 18.7002 21.9939 16.0131L21.997 8.01772L22 8.00969C22 5.24773 19.7607 3.00919 17 3.01172ZM17.0009 5.01172L17.1771 5.01665C18.6929 5.10317 19.907 6.3169 19.9949 7.83341L19.998 8.01121L19.9939 16.0112C19.9916 17.6673 18.6479 19.0102 16.991 19.0117H7C5.34315 19.0117 4 17.6686 4 16.0117V8.01172C4 6.35487 5.34315 5.01172 7 5.01172L17.0009 5.01172Z" fill="#12141D"/>
<g opacity="0.5">
<path fill-rule="evenodd" clip-rule="evenodd" d="M7.29289 8.30461C7.65338 7.94413 8.22061 7.9164 8.6129 8.22142L8.70711 8.30461L9.87868 9.47618C11.0034 10.6009 12.799 10.6459 13.9773 9.61115L14.1213 9.47618L15.2929 8.30461C15.6834 7.91409 16.3166 7.91409 16.7071 8.30461C17.0676 8.6651 17.0953 9.23233 16.7903 9.62462L16.7071 9.71883L15.5355 10.8904C13.6421 12.7838 10.6078 12.8412 8.64525 11.0625L8.46447 10.8904L7.29289 9.71883C6.90237 9.3283 6.90237 8.69514 7.29289 8.30461Z" fill="#12141D"/>
</g>
</svg>
