<svg width="48" height="48" viewBox="0 0 48 48" fill="none" xmlns="http://www.w3.org/2000/svg">
<rect width="48" height="48" rx="24" fill="#E0D3B8"/>
<path d="M25.8398 21H23.3398C22.5114 21 21.8398 21.6716 21.8398 22.5C21.8398 23.3284 22.5114 24 23.3398 24H24.3398C25.1683 24 25.8398 24.6716 25.8398 25.5C25.8398 26.3284 25.1683 27 24.3398 27H21.8398M23.8398 20V21M23.8398 27V28M29.8398 24H29.8498M17.8398 24H17.8498M13.8398 20.2L13.8398 27.8C13.8398 28.9201 13.8398 29.4802 14.0578 29.908C14.2496 30.2843 14.5555 30.5903 14.9319 30.782C15.3597 31 15.9197 31 17.0398 31L30.6398 31C31.76 31 32.32 31 32.7478 30.782C33.1241 30.5903 33.4301 30.2843 33.6219 29.908C33.8398 29.4802 33.8398 28.9201 33.8398 27.8V20.2C33.8398 19.0799 33.8398 18.5198 33.6219 18.092C33.4301 17.7157 33.1241 17.4097 32.7478 17.218C32.32 17 31.7599 17 30.6398 17L17.0398 17C15.9197 17 15.3597 17 14.9319 17.218C14.5555 17.4097 14.2496 17.7157 14.0578 18.092C13.8398 18.5198 13.8398 19.0799 13.8398 20.2ZM30.3398 24C30.3398 24.2761 30.116 24.5 29.8398 24.5C29.5637 24.5 29.3398 24.2761 29.3398 24C29.3398 23.7239 29.5637 23.5 29.8398 23.5C30.116 23.5 30.3398 23.7239 30.3398 24ZM18.3398 24C18.3398 24.2761 18.116 24.5 17.8398 24.5C17.5637 24.5 17.3398 24.2761 17.3398 24C17.3398 23.7239 17.5637 23.5 17.8398 23.5C18.116 23.5 18.3398 23.7239 18.3398 24Z" stroke="#C39855" stroke-width="2" stroke-linecap="round" stroke-linejoin="round"/>
</svg>
