<svg width="20" height="20" viewBox="0 0 20 20" fill="none" xmlns="http://www.w3.org/2000/svg">
<path fill-rule="evenodd" clip-rule="evenodd" d="M14.1597 8.78711C13.4558 6.95459 11.6671 5.66247 9.44396 6.07496C6.98625 6.53098 5.37502 8.76477 5.71023 11.1955C5.83016 12.0653 6.20766 13.4583 6.5949 14.7615C6.98811 16.0847 7.41192 17.382 7.64755 18.0905C7.64934 18.0959 7.65116 18.1014 7.65301 18.1069C7.67998 18.1882 7.71353 18.2892 7.75078 18.3772C7.79536 18.4824 7.8661 18.6222 7.99167 18.7552C8.1584 18.9318 8.37543 19.0571 8.61171 19.1132C8.78966 19.1554 8.94606 19.1468 9.05953 19.1328C9.15435 19.121 9.25858 19.0996 9.34239 19.0823C9.34816 19.0812 9.35384 19.08 9.35941 19.0788C10.0908 18.9287 11.4262 18.647 12.7687 18.3259C14.0909 18.0097 15.4861 17.6401 16.2993 17.3091C18.5609 16.3886 19.7402 13.8798 18.8631 11.5047C18.0813 9.38762 16.097 8.47916 14.1597 8.78711Z" fill="#B79A5C"/>
<path d="M12.1624 1.2432C10.1126 0.299035 8.06706 1.05981 6.91493 2.64744C5.12143 1.84937 2.943 2.20046 1.66266 4.06416C0.247241 6.12448 0.68746 8.84331 2.64329 10.3251C2.99295 10.59 3.48232 10.903 4.03568 11.2317C3.68667 7.98441 5.88023 5.04108 9.1399 4.43627C11.4772 4.0026 13.4431 4.92242 14.6915 6.43875C15.1887 4.37743 14.2195 2.19074 12.1624 1.2432Z" fill="#B79A5C"/>
</svg>
