<svg width="20" height="18" viewBox="0 0 20 18" fill="none" xmlns="http://www.w3.org/2000/svg">
<path d="M15.1839 0.663882C15.3556 0.664768 15.5271 0.665653 15.6985 0.665653C16.1378 0.665638 16.5167 0.665625 16.8289 0.691128C17.1583 0.718046 17.486 0.777476 17.8013 0.938137C18.2717 1.17782 18.6542 1.56027 18.8939 2.03068C19.0545 2.34599 19.1139 2.67368 19.1409 3.00313C19.1664 3.31527 19.1664 3.69423 19.1663 4.13351V11.3644C19.1664 11.8037 19.1664 12.1827 19.1409 12.4948C19.1139 12.8243 19.0545 13.152 18.8939 13.4673C18.6542 13.9377 18.2717 14.3202 17.8013 14.5598C17.486 14.7205 17.1583 14.7799 16.8289 14.8068C16.2714 14.8524 15.7069 14.8451 15.1448 14.8377C14.9363 14.835 14.7281 14.8323 14.5207 14.8323C13.4252 14.8323 13.0511 14.8408 12.7238 14.9402C12.4093 15.0357 12.1168 15.1923 11.8629 15.401C11.4797 15.7159 11.1986 16.1635 10.9286 16.5935C10.8505 16.7178 10.7733 16.8407 10.6949 16.9585C10.5902 17.1168 10.4321 17.2388 10.2412 17.2966C9.8897 17.403 9.51 17.2668 9.3063 16.9612C9.22723 16.8426 9.14947 16.7188 9.07078 16.5935C8.80074 16.1635 8.51967 15.7159 8.13646 15.401C7.88256 15.1923 7.59 15.0357 7.27553 14.9402C6.94826 14.8408 6.57416 14.8323 5.4787 14.8323C5.27129 14.8323 5.06307 14.835 4.85451 14.8377C4.29248 14.8451 3.72799 14.8524 3.17049 14.8068C2.84103 14.7799 2.51335 14.7205 2.19803 14.5598C1.72763 14.3202 1.34518 13.9377 1.10549 13.4673C0.944832 13.152 0.885402 12.8243 0.858485 12.4948C0.832982 12.1827 0.832994 11.8038 0.833008 11.3645V4.13353C0.832994 3.69426 0.832982 3.31527 0.858485 3.00313C0.885402 2.67368 0.944832 2.34599 1.10549 2.03068C1.34518 1.56027 1.72763 1.17782 2.19803 0.938137C2.51335 0.777476 2.84103 0.718046 3.17049 0.691128C3.48263 0.665625 3.8616 0.665638 4.30089 0.665653C4.47224 0.665653 4.64378 0.664768 4.8154 0.663882C5.51857 0.660254 6.22323 0.656618 6.92353 0.713835C7.53091 0.76346 8.0644 0.868303 8.55797 1.11979C9.1276 1.41004 9.61985 1.82589 9.99968 2.33231C10.3795 1.82589 10.8717 1.41004 11.4414 1.11979C11.935 0.868303 12.4684 0.76346 13.0758 0.713835C13.7761 0.656618 14.4808 0.660254 15.1839 0.663882Z" fill="#2E2C34" fill-opacity="0.7"/>
</svg>
