<svg width="19" height="18" viewBox="0 0 19 18" fill="none" xmlns="http://www.w3.org/2000/svg">
<path d="M9.50033 16.5L9.41695 16.3749C8.83808 15.5066 8.54864 15.0725 8.16624 14.7582C7.82771 14.4799 7.43763 14.2712 7.01833 14.1438C6.5447 14 6.02292 14 4.97935 14H3.83366C2.90024 14 2.43353 14 2.07701 13.8183C1.7634 13.6586 1.50844 13.4036 1.34865 13.09C1.16699 12.7335 1.16699 12.2668 1.16699 11.3333V4.16667C1.16699 3.23325 1.16699 2.76654 1.34865 2.41002C1.50844 2.09641 1.7634 1.84144 2.07701 1.68166C2.43353 1.5 2.90024 1.5 3.83366 1.5H4.16699C6.03383 1.5 6.96725 1.5 7.68029 1.86331C8.3075 2.18289 8.81744 2.69282 9.13701 3.32003C9.50033 4.03307 9.50033 4.96649 9.50033 6.83333M9.50033 16.5V6.83333M9.50033 16.5L9.5837 16.3749C10.1626 15.5066 10.452 15.0725 10.8344 14.7582C11.1729 14.4799 11.563 14.2712 11.9823 14.1438C12.456 14 12.9777 14 14.0213 14H15.167C16.1004 14 16.5671 14 16.9236 13.8183C17.2372 13.6586 17.4922 13.4036 17.652 13.09C17.8337 12.7335 17.8337 12.2668 17.8337 11.3333V4.16667C17.8337 3.23325 17.8337 2.76654 17.652 2.41002C17.4922 2.09641 17.2372 1.84144 16.9236 1.68166C16.5671 1.5 16.1004 1.5 15.167 1.5H14.8337C12.9668 1.5 12.0334 1.5 11.3204 1.86331C10.6932 2.18289 10.1832 2.69282 9.86364 3.32003C9.50033 4.03307 9.50033 4.96649 9.50033 6.83333" stroke="white" stroke-width="1.67" stroke-linecap="round" stroke-linejoin="round"/>
</svg>
