<svg width="16" height="20" viewBox="0 0 16 20" fill="none" xmlns="http://www.w3.org/2000/svg">
<path fill-rule="evenodd" clip-rule="evenodd" d="M0.536517 16.0438C0.574788 16.5123 0.656925 16.9428 0.863001 17.3473C1.18258 17.9745 1.69251 18.4844 2.31972 18.804C2.72417 19.0101 3.15475 19.0922 3.62317 19.1305C4.07416 19.1673 4.62779 19.1673 5.29859 19.1673H12.0318C12.4711 19.1673 12.8501 19.1673 13.1622 19.1418C13.4917 19.1149 13.8194 19.0555 14.1347 18.8948C14.6051 18.6552 14.9875 18.2727 15.2272 17.8023C15.3879 17.487 15.4473 17.1593 15.4742 16.8298C15.4971 16.55 15.4997 16.2167 15.4997 15.834C15.4997 11.9899 15.4997 8.14589 15.4997 4.30185C15.4997 3.86257 15.4997 3.4836 15.4742 3.17146C15.4473 2.84201 15.3879 2.51433 15.2272 2.19901C14.9875 1.72861 14.6051 1.34615 14.1347 1.10647C13.8194 0.945809 13.4917 0.886379 13.1622 0.859461C12.8501 0.833959 12.4711 0.833971 12.0318 0.833985H5.29861C4.62782 0.833976 4.07415 0.833968 3.62317 0.870815C3.15475 0.909086 2.72417 0.991223 2.31972 1.1973C1.69251 1.51688 1.18258 2.02681 0.863001 2.65402C0.656925 3.05846 0.574788 3.48905 0.536517 3.95746C0.49967 4.40846 0.499678 4.96209 0.499689 5.63289V14.3684C0.49968 14.9276 0.491011 15.4869 0.536517 16.0438ZM13.8131 16.6941C13.7946 16.9205 13.7632 17.0044 13.7422 17.0456C13.6623 17.2024 13.5348 17.3299 13.378 17.4098C13.3368 17.4308 13.2529 17.4622 13.0265 17.4807C12.7904 17.5 12.4802 17.5007 11.9997 17.5007H5.33302C4.61921 17.5007 4.13396 17.5 3.75889 17.4694C3.39354 17.4395 3.20671 17.3854 3.07637 17.319C2.76277 17.1592 2.5078 16.9042 2.34801 16.5906C2.1987 16.2976 2.12486 16.0438 2.18035 15.617C2.28668 14.7991 2.98608 14.1673 3.83302 14.1673H13.833C13.833 15.0048 13.8814 15.8586 13.8131 16.6941Z" fill="#2E2C34" fill-opacity="0.7"/>
</svg>
