<svg width="24" height="25" viewBox="0 0 24 25" fill="none" xmlns="http://www.w3.org/2000/svg">
<path fill-rule="evenodd" clip-rule="evenodd" d="M16 8.01172H8C5.23858 8.01172 3 10.2503 3 13.0117V17.0117C3 19.7731 5.23858 22.0117 8 22.0117H16C18.7614 22.0117 21 19.7731 21 17.0117V13.0117C21 10.2503 18.7614 8.01172 16 8.01172ZM8 10.0117H16C17.6569 10.0117 19 11.3549 19 13.0117V17.0117C19 18.6686 17.6569 20.0117 16 20.0117H8C6.34315 20.0117 5 18.6686 5 17.0117V13.0117C5 11.3549 6.34315 10.0117 8 10.0117ZM12 13.0117C11.4477 13.0117 11 13.4594 11 14.0117V16.0117C11 16.564 11.4477 17.0117 12 17.0117C12.5523 17.0117 13 16.564 13 16.0117V14.0117C13 13.4594 12.5523 13.0117 12 13.0117Z" fill="#12141D"/>
<g opacity="0.5">
<path fill-rule="evenodd" clip-rule="evenodd" d="M12 2.01172C14.89 2.01172 16.8924 4.079 16.9958 6.8613L17 7.08843V9.01168C17 9.56396 16.5523 10.0117 16 10.0117C15.4872 10.0117 15.0645 9.62564 15.0067 9.1283L15 9.01168V7.08843C15 5.26651 13.8307 4.01172 12 4.01172C10.2328 4.01172 9.09149 5.16362 9.00522 6.87777L9 7.07052V9.01168C9 9.56396 8.55228 10.0117 8 10.0117C7.48716 10.0117 7.06449 9.62564 7.00673 9.1283L7 9.01168L7.00001 7.06623C7.01241 4.17093 9.03349 2.01172 12 2.01172Z" fill="#12141D"/>
</g>
</svg>
