<svg width="18" height="20" viewBox="0 0 18 20" fill="none" xmlns="http://www.w3.org/2000/svg">
<path fill-rule="evenodd" clip-rule="evenodd" d="M3.41292 12.4443C3.65865 12.4814 3.91025 12.5007 4.16634 12.5007C6.92776 12.5007 9.16634 10.2621 9.16634 7.50065V2.91732C9.16634 2.58904 9.12416 2.27061 9.04492 1.96716C8.91879 1.48418 8.85572 1.24264 8.88948 1.13053C8.92463 1.01377 8.96733 0.958485 9.07143 0.89497C9.17137 0.833985 9.37537 0.833985 9.78335 0.833985H12.7008C13.3716 0.833975 13.9252 0.833967 14.3762 0.870814C14.8446 0.909085 15.2752 0.991222 15.6796 1.1973C16.3069 1.51688 16.8168 2.02681 17.1364 2.65402C17.3424 3.05846 17.4246 3.48905 17.4628 3.95746C17.4997 4.40846 17.4997 4.96208 17.4997 5.63288V14.3684C17.4997 15.0392 17.4997 15.5928 17.4628 16.0438C17.4246 16.5123 17.3424 16.9428 17.1364 17.3473C16.8168 17.9745 16.3069 18.4844 15.6796 18.804C15.2752 19.0101 14.8446 19.0922 14.3762 19.1305C13.9252 19.1673 13.3716 19.1673 12.7008 19.1673H7.29857C6.62777 19.1673 6.07415 19.1673 5.62315 19.1305C5.15474 19.0922 4.72415 19.0101 4.31971 18.804C3.6925 18.4844 3.18256 17.9745 2.86299 17.3473C2.65691 16.9428 2.57477 16.5123 2.5365 16.0438C2.49966 15.5928 2.49966 15.0392 2.49967 14.3684V13.1589C2.49967 12.84 2.49967 12.6806 2.55397 12.5849C2.60701 12.4915 2.6668 12.4401 2.76713 12.4016C2.86984 12.3622 3.05087 12.3895 3.41292 12.4443ZM10.4163 8.33398C10.4163 7.87375 10.7894 7.50065 11.2497 7.50065H14.1663C14.6266 7.50065 14.9997 7.87375 14.9997 8.33398C14.9997 8.79422 14.6266 9.16732 14.1663 9.16732H11.2497C10.7894 9.16732 10.4163 8.79422 10.4163 8.33398ZM9.58301 11.6673C9.58301 11.2071 9.9561 10.834 10.4163 10.834H14.1663C14.6266 10.834 14.9997 11.2071 14.9997 11.6673C14.9997 12.1276 14.6266 12.5007 14.1663 12.5007H10.4163C9.9561 12.5007 9.58301 12.1276 9.58301 11.6673ZM7.49967 14.1673C7.03944 14.1673 6.66634 14.5404 6.66634 15.0007C6.66634 15.4609 7.03944 15.834 7.49967 15.834H14.1663C14.6266 15.834 14.9997 15.4609 14.9997 15.0007C14.9997 14.5404 14.6266 14.1673 14.1663 14.1673H7.49967Z" fill="#2E2C34" fill-opacity="0.7"/>
<path d="M4.99967 2.91732C4.99967 2.6872 5.18622 2.50065 5.41634 2.50065C5.64646 2.50065 5.83301 2.6872 5.83301 2.91732V7.50065C5.83301 8.42113 5.08682 9.16732 4.16634 9.16732C3.24587 9.16732 2.49967 8.42113 2.49967 7.50065V4.16732C2.49967 3.70708 2.12658 3.33398 1.66634 3.33398C1.2061 3.33398 0.833008 3.70708 0.833008 4.16732V7.50065C0.833008 9.3416 2.32539 10.834 4.16634 10.834C6.00729 10.834 7.49967 9.3416 7.49967 7.50065V2.91732C7.49967 1.76673 6.56693 0.833985 5.41634 0.833985C4.26575 0.833985 3.33301 1.76673 3.33301 2.91732V7.50065C3.33301 7.96089 3.7061 8.33398 4.16634 8.33398C4.62658 8.33398 4.99967 7.96089 4.99967 7.50065V2.91732Z" fill="#2E2C34" fill-opacity="0.7"/>
</svg>
