<svg width="45" height="44" viewBox="0 0 45 44" fill="none" xmlns="http://www.w3.org/2000/svg">
<g filter="url(#filter0_d_1333_51284)">
<rect x="2.5" y="1" width="40" height="40" rx="8" fill="white"/>
<path d="M21.6665 14.3342H15.8332C15.3911 14.3342 14.9672 14.5098 14.6547 14.8223C14.3421 15.1349 14.1665 15.5588 14.1665 16.0008V27.6675C14.1665 28.1095 14.3421 28.5335 14.6547 28.846C14.9672 29.1586 15.3911 29.3342 15.8332 29.3342H27.4998C27.9419 29.3342 28.3658 29.1586 28.6783 28.846C28.9909 28.5335 29.1665 28.1095 29.1665 27.6675V21.8342M27.9165 13.0842C28.248 12.7527 28.6977 12.5664 29.1665 12.5664C29.6353 12.5664 30.085 12.7527 30.4165 13.0842C30.748 13.4157 30.9343 13.8653 30.9343 14.3342C30.9343 14.803 30.748 15.2527 30.4165 15.5842L22.4998 23.5008L19.1665 24.3342L19.9998 21.0008L27.9165 13.0842Z" stroke="#344054" stroke-width="1.67" stroke-linecap="round" stroke-linejoin="round"/>
<rect x="3" y="1.5" width="39" height="39" rx="7.5" stroke="#B79A5C"/>
</g>
<defs>
<filter id="filter0_d_1333_51284" x="0.5" y="0" width="44" height="44" filterUnits="userSpaceOnUse" color-interpolation-filters="sRGB">
<feFlood flood-opacity="0" result="BackgroundImageFix"/>
<feColorMatrix in="SourceAlpha" type="matrix" values="0 0 0 0 0 0 0 0 0 0 0 0 0 0 0 0 0 0 127 0" result="hardAlpha"/>
<feOffset dy="1"/>
<feGaussianBlur stdDeviation="1"/>
<feColorMatrix type="matrix" values="0 0 0 0 0.0627451 0 0 0 0 0.0941176 0 0 0 0 0.156863 0 0 0 0.05 0"/>
<feBlend mode="normal" in2="BackgroundImageFix" result="effect1_dropShadow_1333_51284"/>
<feBlend mode="normal" in="SourceGraphic" in2="effect1_dropShadow_1333_51284" result="shape"/>
</filter>
</defs>
</svg>
