<svg width="48" height="48" viewBox="0 0 48 48" fill="none" xmlns="http://www.w3.org/2000/svg">
<rect width="48" height="48" rx="10" fill="#D1FADF"/>
<path d="M26.3398 21H23.8398C23.0114 21 22.3398 21.6716 22.3398 22.5C22.3398 23.3284 23.0114 24 23.8398 24H24.8398C25.6683 24 26.3398 24.6716 26.3398 25.5C26.3398 26.3284 25.6683 27 24.8398 27H22.3398M24.3398 20V21M24.3398 27V28M30.3398 24H30.3498M18.3398 24H18.3498M14.3398 20.2L14.3398 27.8C14.3398 28.9201 14.3398 29.4802 14.5578 29.908C14.7496 30.2843 15.0555 30.5903 15.4319 30.782C15.8597 31 16.4197 31 17.5398 31L31.1398 31C32.26 31 32.82 31 33.2478 30.782C33.6241 30.5903 33.9301 30.2843 34.1219 29.908C34.3398 29.4802 34.3398 28.9201 34.3398 27.8V20.2C34.3398 19.0799 34.3398 18.5198 34.1219 18.092C33.9301 17.7157 33.6241 17.4097 33.2478 17.218C32.82 17 32.2599 17 31.1398 17L17.5398 17C16.4197 17 15.8597 17 15.4319 17.218C15.0555 17.4097 14.7496 17.7157 14.5578 18.092C14.3398 18.5198 14.3398 19.0799 14.3398 20.2ZM30.8398 24C30.8398 24.2761 30.616 24.5 30.3398 24.5C30.0637 24.5 29.8398 24.2761 29.8398 24C29.8398 23.7239 30.0637 23.5 30.3398 23.5C30.616 23.5 30.8398 23.7239 30.8398 24ZM18.8398 24C18.8398 24.2761 18.616 24.5 18.3398 24.5C18.0637 24.5 17.8398 24.2761 17.8398 24C17.8398 23.7239 18.0637 23.5 18.3398 23.5C18.616 23.5 18.8398 23.7239 18.8398 24Z" stroke="#12B76A" stroke-width="2" stroke-linecap="round" stroke-linejoin="round"/>
</svg>
