<svg width="16" height="20" viewBox="0 0 16 20" fill="none" xmlns="http://www.w3.org/2000/svg">
<path fill-rule="evenodd" clip-rule="evenodd" d="M10.7011 0.833985H5.29892C4.62812 0.833974 4.07447 0.833966 3.62348 0.870813C3.15507 0.909084 2.72448 0.991221 2.32003 1.1973C1.69283 1.51687 1.18289 2.02681 0.863313 2.65402C0.657237 3.05846 0.5751 3.48905 0.536829 3.95746C0.499982 4.40846 0.49999 4.96209 0.5 5.63289V14.3684C0.49999 15.0392 0.499982 15.5928 0.536829 16.0438C0.5751 16.5123 0.657237 16.9428 0.863313 17.3473C1.18289 17.9745 1.69283 18.4844 2.32003 18.804C2.72448 19.0101 3.15507 19.0922 3.62348 19.1305C4.07447 19.1673 4.6281 19.1673 5.2989 19.1673H10.7011C11.3719 19.1673 11.9255 19.1673 12.3765 19.1305C12.8449 19.0922 13.2755 19.0101 13.68 18.804C14.3072 18.4844 14.8171 17.9745 15.1367 17.3473C15.3428 16.9428 15.4249 16.5123 15.4632 16.0438C15.5 15.5928 15.5 15.0392 15.5 14.3684V5.63288C15.5 4.96208 15.5 4.40846 15.4632 3.95746C15.4249 3.48905 15.3428 3.05846 15.1367 2.65402C14.8171 2.02681 14.3072 1.51687 13.68 1.1973C13.2755 0.991221 12.8449 0.909084 12.3765 0.870813C11.9255 0.833966 11.3719 0.833974 10.7011 0.833985ZM4.66667 5.00065C4.20643 5.00065 3.83333 5.37375 3.83333 5.83398C3.83333 6.29422 4.20643 6.66732 4.66667 6.66732H11.3333C11.7936 6.66732 12.1667 6.29422 12.1667 5.83398C12.1667 5.37375 11.7936 5.00065 11.3333 5.00065H4.66667ZM3.83333 9.16732C3.83333 8.70708 4.20643 8.33398 4.66667 8.33398H9.66667C10.1269 8.33398 10.5 8.70708 10.5 9.16732C10.5 9.62755 10.1269 10.0007 9.66667 10.0007H4.66667C4.20643 10.0007 3.83333 9.62755 3.83333 9.16732ZM3.83333 12.5007C3.83333 12.0404 4.20643 11.6673 4.66667 11.6673H6.33333C6.79357 11.6673 7.16667 12.0404 7.16667 12.5007C7.16667 12.9609 6.79357 13.334 6.33333 13.334H4.66667C4.20643 13.334 3.83333 12.9609 3.83333 12.5007Z" fill="#2E2C34" fill-opacity="0.7"/>
</svg>
