<svg width="405" height="50" viewBox="0 0 405 50" fill="none" xmlns="http://www.w3.org/2000/svg">
<path d="M141.167 17.4993C141.167 17.0391 141.54 16.666 142 16.666H147C147.461 16.666 147.834 17.0391 147.834 17.4993L147.834 22.4993C147.834 22.9596 147.461 23.3327 147 23.3327C146.54 23.3327 146.167 22.9596 146.167 22.4994L146.167 19.5112L140.923 24.7553C140.597 25.0807 140.07 25.0807 139.744 24.7553C139.419 24.4298 139.419 23.9022 139.744 23.5768L144.988 18.3327H142C141.54 18.3327 141.167 17.9596 141.167 17.4993Z" fill="#B79A5C"/>
<path d="M135.966 18.3327L137.834 18.3327C138.294 18.3327 138.667 18.7058 138.667 19.166C138.667 19.6263 138.294 19.9993 137.834 19.9993H136C135.287 19.9993 134.801 20 134.426 20.0306C134.061 20.0605 133.874 20.1146 133.744 20.181C133.43 20.3408 133.175 20.5958 133.015 20.9094C132.949 21.0397 132.895 21.2265 132.865 21.5919C132.834 21.967 132.834 22.4522 132.834 23.166V28.4994C132.834 29.2132 132.834 29.6984 132.865 30.0735C132.895 30.4388 132.949 30.6257 133.015 30.756C133.175 31.0696 133.43 31.3246 133.744 31.4844C133.874 31.5508 134.061 31.6049 134.426 31.6347C134.801 31.6654 135.287 31.666 136 31.666H141.334C142.047 31.666 142.533 31.6654 142.908 31.6347C143.273 31.6049 143.46 31.5508 143.59 31.4844C143.904 31.3246 144.159 31.0696 144.319 30.756C144.385 30.6257 144.439 30.4388 144.469 30.0735C144.5 29.6984 144.5 29.2132 144.5 28.4994V26.666C144.5 26.2058 144.873 25.8327 145.334 25.8327C145.794 25.8327 146.167 26.2058 146.167 26.666V28.5338C146.167 29.2046 146.167 29.7582 146.13 30.2092C146.092 30.6776 146.01 31.1082 145.804 31.5127C145.484 32.1399 144.974 32.6498 144.347 32.9694C143.943 33.1754 143.512 33.2576 143.044 33.2959C142.593 33.3327 142.039 33.3327 141.368 33.3327H135.966C135.295 33.3327 134.741 33.3327 134.29 33.2959C133.822 33.2576 133.391 33.1754 132.987 32.9694C132.36 32.6498 131.85 32.1399 131.53 31.5127C131.324 31.1082 131.242 30.6776 131.204 30.2092C131.167 29.7582 131.167 29.2046 131.167 28.5338V23.1316C131.167 22.4608 131.167 21.9072 131.204 21.4562C131.242 20.9877 131.324 20.5572 131.53 20.1527C131.85 19.5255 132.36 19.0156 132.987 18.696C133.391 18.4899 133.822 18.4078 134.29 18.3695C134.741 18.3327 135.295 18.3327 135.966 18.3327Z" fill="#B79A5C"/>
<path d="M162.732 27C165.308 27 166.972 25.64 166.972 23.224C166.972 20.824 165.308 19.512 162.732 19.512H158.748V31H160.508V27H162.732ZM162.716 21C164.268 21 165.212 21.816 165.212 23.24C165.212 24.664 164.268 25.512 162.716 25.512H160.508V21H162.716ZM167.84 26.76C167.84 29.304 169.312 31.16 171.6 31.16C172.8 31.16 173.824 30.552 174.432 29.48V31H175.936V22.52H174.432V24.008C173.84 22.936 172.896 22.36 171.664 22.36C169.328 22.36 167.84 24.184 167.84 26.76ZM169.52 26.76C169.52 24.84 170.512 23.784 171.92 23.784C173.264 23.784 174.32 24.824 174.32 26.728C174.32 28.6 173.296 29.72 171.92 29.72C170.512 29.72 169.52 28.648 169.52 26.76ZM179.705 26.664C179.705 24.792 181.033 23.992 182.857 24.088V22.408C181.465 22.408 180.185 23.144 179.593 24.312V22.52H178.089V31H179.705V26.664ZM189.435 29.432C189.099 29.592 188.763 29.656 188.379 29.656C187.515 29.656 186.955 29.24 186.955 28.072V23.896H189.515V22.52H186.955V20.008H185.339V22.52H183.467V23.896H185.339V28.44C185.339 30.312 186.427 31.16 187.995 31.16C188.507 31.16 188.939 31.08 189.435 30.856V29.432ZM190.215 26.76C190.215 29.304 191.687 31.16 193.975 31.16C195.175 31.16 196.199 30.552 196.807 29.48V31H198.311V22.52H196.807V24.008C196.215 22.936 195.271 22.36 194.039 22.36C191.703 22.36 190.215 24.184 190.215 26.76ZM191.895 26.76C191.895 24.84 192.887 23.784 194.295 23.784C195.639 23.784 196.695 24.824 196.695 26.728C196.695 28.6 195.671 29.72 194.295 29.72C192.887 29.72 191.895 28.648 191.895 26.76ZM203.856 34.264C206.256 34.264 207.68 32.936 207.68 30.712V22.52H206.176V24.024C205.6 22.952 204.64 22.36 203.424 22.36C201.296 22.36 199.856 24.056 199.856 26.584C199.856 29.08 201.36 30.824 203.472 30.824C204.624 30.824 205.584 30.232 206.064 29.208V30.744C206.064 32.2 205.296 32.984 203.84 32.984C202.528 32.984 201.76 32.344 201.664 31.16H200.096C200.192 33.08 201.632 34.264 203.856 34.264ZM201.488 26.584C201.488 24.84 202.368 23.752 203.76 23.752C205.152 23.752 206.064 24.872 206.064 26.632C206.064 28.312 205.136 29.416 203.76 29.416C202.352 29.416 201.488 28.344 201.488 26.584ZM213.405 31.16C215.405 31.16 216.861 30.024 217.277 28.136H215.677C215.405 29.24 214.573 29.896 213.373 29.896C211.949 29.896 211.085 28.888 210.957 27.16H217.277C217.565 24.408 215.885 22.36 213.357 22.36C211.021 22.36 209.309 24.2 209.309 26.712C209.309 29.384 210.957 31.16 213.405 31.16ZM213.325 23.576C214.637 23.576 215.485 24.52 215.565 26.088H210.973C211.149 24.504 212.029 23.576 213.325 23.576ZM220.611 26.664C220.611 24.792 221.939 23.992 223.763 24.088V22.408C222.371 22.408 221.091 23.144 220.499 24.312V22.52H218.995V31H220.611V26.664ZM230.018 31V19.512H228.386V31H230.018ZM235.749 31.16C237.749 31.16 239.205 30.024 239.621 28.136H238.021C237.749 29.24 236.917 29.896 235.717 29.896C234.293 29.896 233.429 28.888 233.301 27.16H239.621C239.909 24.408 238.229 22.36 235.701 22.36C233.365 22.36 231.653 24.2 231.653 26.712C231.653 29.384 233.301 31.16 235.749 31.16ZM235.669 23.576C236.981 23.576 237.829 24.52 237.909 26.088H233.317C233.493 24.504 234.373 23.576 235.669 23.576ZM246.315 31V19.512H244.683V31H246.315ZM250.526 20.552C250.526 19.928 250.046 19.48 249.358 19.48C248.67 19.48 248.174 19.928 248.174 20.552C248.174 21.16 248.67 21.624 249.358 21.624C250.046 21.624 250.526 21.16 250.526 20.552ZM250.174 31V22.52H248.558V31H250.174ZM259.457 22.52H257.809L255.425 29.144L253.073 22.52H251.329L254.513 31H256.273L259.457 22.52ZM262.22 26.664C262.22 24.792 263.548 23.992 265.372 24.088V22.408C263.98 22.408 262.7 23.144 262.108 24.312V22.52H260.604V31H262.22V26.664ZM270.108 31.16C272.108 31.16 273.564 30.024 273.98 28.136H272.38C272.108 29.24 271.276 29.896 270.076 29.896C268.652 29.896 267.788 28.888 267.66 27.16H273.98C274.268 24.408 272.588 22.36 270.06 22.36C267.724 22.36 266.012 24.2 266.012 26.712C266.012 29.384 267.66 31.16 270.108 31.16ZM270.028 23.576C271.34 23.576 272.188 24.52 272.268 26.088H267.676C267.852 24.504 268.732 23.576 270.028 23.576Z" fill="#B79A5C"/>
</svg>
