<svg width="17" height="18" viewBox="0 0 17 18" fill="none" xmlns="http://www.w3.org/2000/svg">
<path d="M10.167 1.49935C10.167 1.03911 10.5401 0.666016 11.0003 0.666016H16.0003C16.4606 0.666016 16.8337 1.03911 16.8337 1.49935L16.8337 6.49935C16.8337 6.95959 16.4606 7.33268 16.0003 7.33268C15.5401 7.33268 15.167 6.95959 15.167 6.49935L15.167 3.5112L9.92291 8.75527C9.59748 9.08071 9.06984 9.08071 8.7444 8.75527C8.41897 8.42983 8.41897 7.9022 8.7444 7.57676L13.9885 2.33268H11.0003C10.5401 2.33268 10.167 1.95959 10.167 1.49935Z" fill="#B79A5C"/>
<path d="M4.96591 2.33268L6.83366 2.33268C7.2939 2.33268 7.66699 2.70578 7.66699 3.16602C7.66699 3.62625 7.2939 3.99935 6.83366 3.99935H5.00033C4.28651 3.99935 3.80127 4 3.42619 4.03064C3.06085 4.06049 2.87401 4.1146 2.74368 4.18101C2.43007 4.34079 2.1751 4.59576 2.01532 4.90937C1.94891 5.0397 1.8948 5.22654 1.86495 5.59188C1.83431 5.96696 1.83366 6.4522 1.83366 7.16602V12.4994C1.83366 13.2132 1.83431 13.6984 1.86495 14.0735C1.8948 14.4388 1.94891 14.6257 2.01532 14.756C2.1751 15.0696 2.43007 15.3246 2.74368 15.4844C2.87401 15.5508 3.06085 15.6049 3.42619 15.6347C3.80127 15.6654 4.28651 15.666 5.00033 15.666H10.3337C11.0475 15.666 11.5327 15.6654 11.9078 15.6347C12.2731 15.6049 12.46 15.5508 12.5903 15.4844C12.9039 15.3246 13.1589 15.0696 13.3187 14.756C13.3851 14.6257 13.4392 14.4388 13.469 14.0735C13.4997 13.6984 13.5003 13.2132 13.5003 12.4994V10.666C13.5003 10.2058 13.8734 9.83268 14.3337 9.83268C14.7939 9.83268 15.167 10.2058 15.167 10.666V12.5338C15.167 13.2046 15.167 13.7582 15.1302 14.2092C15.0919 14.6776 15.0098 15.1082 14.8037 15.5127C14.4841 16.1399 13.9742 16.6498 13.347 16.9694C12.9425 17.1754 12.5119 17.2576 12.0435 17.2959C11.5925 17.3327 11.0389 17.3327 10.3681 17.3327H4.96589C4.29509 17.3327 3.74146 17.3327 3.29047 17.2959C2.82206 17.2576 2.39147 17.1754 1.98703 16.9694C1.35982 16.6498 0.849883 16.1399 0.530305 15.5127C0.324229 15.1082 0.242092 14.6776 0.203821 14.2092C0.166974 13.7582 0.166982 13.2046 0.166993 12.5338V7.1316C0.166982 6.4608 0.166974 5.90716 0.203821 5.45616C0.242092 4.98775 0.324229 4.55716 0.530305 4.15272C0.849883 3.52551 1.35982 3.01557 1.98703 2.69599C2.39147 2.48992 2.82206 2.40778 3.29047 2.36951C3.74147 2.33266 4.2951 2.33267 4.96591 2.33268Z" fill="#B79A5C"/>
</svg>
