<svg width="19" height="20" viewBox="0 0 19 20" fill="none" xmlns="http://www.w3.org/2000/svg">
<path d="M17.8337 10.097C17.8337 5.44068 14.059 1.66602 9.40274 1.66602C5.62356 1.66602 2.42513 4.15256 1.35426 7.57885C1.28567 7.79833 1.25137 7.90807 1.2546 8.0453C1.25724 8.15688 1.29115 8.29473 1.3406 8.3948C1.4014 8.51786 1.49529 8.61175 1.68305 8.7995L10.7006 17.8166C10.8883 18.0043 10.9822 18.0982 11.1053 18.159C11.2053 18.2085 11.3432 18.2424 11.4548 18.245C11.592 18.2482 11.7017 18.2139 11.9212 18.1453C15.3473 17.0743 17.8337 13.876 17.8337 10.097Z" stroke="#667085" stroke-width="1.66667" stroke-linecap="round" stroke-linejoin="round"/>
<path d="M2.37217 8.1111C2.57259 8.09684 2.77494 8.08959 2.97899 8.08959C7.63528 8.08959 11.4099 11.8643 11.4099 16.5205C11.4099 16.7246 11.4027 16.9269 11.3884 17.1274C11.3635 17.4775 11.3511 17.6526 11.249 17.7607C11.1661 17.8486 11.0246 17.9014 10.9045 17.8893C10.7565 17.8745 10.622 17.7399 10.3529 17.4708L2.0287 9.14667C1.75959 8.87756 1.62504 8.74301 1.61022 8.59505C1.59818 8.47488 1.65097 8.33342 1.7388 8.25052C1.84693 8.14845 2.02201 8.136 2.37217 8.1111Z" stroke="#667085" stroke-width="1.66667" stroke-linecap="round" stroke-linejoin="round"/>
</svg>
