<svg width="24" height="25" viewBox="0 0 24 25" fill="none" xmlns="http://www.w3.org/2000/svg">
<path fill-rule="evenodd" clip-rule="evenodd" d="M12.0011 14.0117C11.6555 14.0114 11.3185 14.0156 10.9903 14.0246L10.3457 14.0487C10.0294 14.0639 9.72207 14.0838 9.42397 14.1085L8.84014 14.1644C5.12621 14.5695 3 15.7949 3 18.009C3 20.1272 4.83487 21.3281 8.22291 21.7898L8.78589 21.8582L9.37584 21.9138C9.57695 21.9302 9.78251 21.9445 9.99248 21.9568L10.6355 21.9873C10.7449 21.9914 10.8554 21.9949 10.9669 21.998L11.6491 22.0101L11.9999 22.0117C12.236 22.0117 12.4678 22.0098 12.6953 22.0058L13.3647 21.9879C13.4741 21.9839 13.5824 21.9793 13.6896 21.9743L14.3196 21.9378C14.5252 21.9236 14.7264 21.9073 14.9231 21.8888L15.4996 21.8271C19.0656 21.3956 20.9994 20.189 20.9997 18.0119C21.0001 15.6282 18.5454 14.3962 14.2811 14.0892L13.6596 14.0516C13.2372 14.0307 12.7987 14.0181 12.3446 14.0136L12.0011 14.0117ZM11.9991 16.0117C16.6025 16.0164 18.9999 16.8871 18.9997 18.0116C18.9996 18.651 18.3164 19.1924 16.9128 19.55L16.5121 19.6429C16.0237 19.7458 15.462 19.8294 14.8259 19.8907L14.2624 19.9378C14.1654 19.9448 14.0669 19.9512 13.9669 19.9572L13.3483 19.9873C13.2421 19.9914 13.1344 19.9949 13.0252 19.998L12.3512 20.0102L12.0003 20.0117C11.7633 20.0117 11.5326 20.0095 11.308 20.0053L10.6527 19.9868C10.5466 19.9827 10.442 19.9781 10.3389 19.973L9.73885 19.9369L9.17537 19.8895C6.35829 19.6162 5 18.9088 5 18.009C5 17.0849 6.62025 16.3295 9.73875 16.0907L10.341 16.052C10.8575 16.025 11.4103 16.0111 11.9991 16.0117Z" fill="#12141D"/>
<g opacity="0.5">
<path fill-rule="evenodd" clip-rule="evenodd" d="M12 2.01172C9.23858 2.01172 7 4.25029 7 7.01172C7 9.77314 9.23858 12.0117 12 12.0117C14.7614 12.0117 17 9.77314 17 7.01172C17 4.25029 14.7614 2.01172 12 2.01172ZM12 4.01172C13.6569 4.01172 15 5.35486 15 7.01172C15 8.66857 13.6569 10.0117 12 10.0117C10.3431 10.0117 9 8.66857 9 7.01172C9 5.35486 10.3431 4.01172 12 4.01172Z" fill="#12141D"/>
</g>
</svg>
