<svg width="41" height="40" viewBox="0 0 41 40" fill="none" xmlns="http://www.w3.org/2000/svg">
<rect x="0.666992" width="40" height="40" rx="8" fill="#EFF8FF"/>
<path d="M27.3333 18.3327V12.9993C27.3333 12.5326 27.3333 12.2993 27.2425 12.121C27.1626 11.9642 27.0351 11.8367 26.8783 11.7568C26.7001 11.666 26.4667 11.666 26 11.666H15.3333C14.8666 11.666 14.6333 11.666 14.455 11.7568C14.2982 11.8367 14.1707 11.9642 14.0908 12.121C14 12.2993 14 12.5326 14 12.9993V18.3327M27.3333 18.3327H14M27.3333 18.3327V18.4993C27.3333 19.8995 27.3333 20.5995 27.0608 21.1343C26.8212 21.6047 26.4387 21.9872 25.9683 22.2269C25.4335 22.4993 24.7335 22.4993 23.3333 22.4993H18C16.5999 22.4993 15.8998 22.4993 15.365 22.2269C14.8946 21.9872 14.5122 21.6047 14.2725 21.1343C14 20.5995 14 19.8995 14 18.4993V18.3327M22.75 22.4993V26.2493C22.75 27.3999 21.8173 28.3327 20.6667 28.3327C19.5161 28.3327 18.5833 27.3999 18.5833 26.2493V22.4993" stroke="#3375FF" stroke-width="2" stroke-linecap="round" stroke-linejoin="round"/>
</svg>
