<svg width="18" height="18" viewBox="0 0 18 18" fill="none" xmlns="http://www.w3.org/2000/svg">
<path d="M8.41107 0.910093C8.73651 0.584656 9.26414 0.584656 9.58958 0.910093L13.7562 5.07676C14.0817 5.4022 14.0817 5.92983 13.7562 6.25527C13.4308 6.58071 12.9032 6.58071 12.5777 6.25527L9.83366 3.51119L9.83366 11.4993C9.83366 11.9596 9.46056 12.3327 9.00033 12.3327C8.54009 12.3327 8.16699 11.9596 8.16699 11.4993L8.16699 3.51119L5.42291 6.25527C5.09748 6.58071 4.56984 6.58071 4.2444 6.25527C3.91897 5.92983 3.91897 5.4022 4.2444 5.07676L8.41107 0.910093Z" fill="white"/>
<path d="M1.50033 10.666C1.96056 10.666 2.33366 11.0391 2.33366 11.4993V12.4993C2.33366 13.2132 2.33431 13.6984 2.36495 14.0735C2.3948 14.4388 2.44891 14.6257 2.51532 14.756C2.6751 15.0696 2.93007 15.3246 3.24368 15.4844C3.37401 15.5508 3.56085 15.6049 3.92619 15.6347C4.30127 15.6654 4.78651 15.666 5.50033 15.666H12.5003C13.2141 15.666 13.6994 15.6654 14.0745 15.6347C14.4398 15.6049 14.6266 15.5508 14.757 15.4844C15.0706 15.3246 15.3255 15.0696 15.4853 14.756C15.5517 14.6257 15.6058 14.4388 15.6357 14.0735C15.6663 13.6984 15.667 13.2132 15.667 12.4993V11.4993C15.667 11.0391 16.0401 10.666 16.5003 10.666C16.9606 10.666 17.3337 11.0391 17.3337 11.4993V12.5338C17.3337 13.2046 17.3337 13.7582 17.2968 14.2092C17.2586 14.6776 17.1764 15.1082 16.9703 15.5127C16.6508 16.1399 16.1408 16.6498 15.5136 16.9694C15.1092 17.1754 14.6786 17.2576 14.2102 17.2959C13.7592 17.3327 13.2056 17.3327 12.5347 17.3327H5.46591C4.7951 17.3327 4.24147 17.3327 3.79047 17.2959C3.32206 17.2576 2.89147 17.1754 2.48703 16.9694C1.85982 16.6498 1.34988 16.1399 1.0303 15.5127C0.824229 15.1082 0.742092 14.6776 0.703821 14.2092C0.666974 13.7582 0.666982 13.2046 0.666993 12.5338V11.4993C0.666993 11.0391 1.04009 10.666 1.50033 10.666Z" fill="white"/>
</svg>
