<svg width="20" height="21" viewBox="0 0 20 21" fill="none" xmlns="http://www.w3.org/2000/svg">
<path fill-rule="evenodd" clip-rule="evenodd" d="M10.5228 0.337088C10.1805 0.244408 9.81975 0.244408 9.47745 0.337088C9.08008 0.444678 8.74553 0.707331 8.47853 0.916961L8.40389 0.975379L1.54388 6.31085C1.16725 6.60314 0.835438 6.86064 0.58818 7.19494C0.371188 7.48832 0.209542 7.81883 0.11118 8.17023C-0.000900149 8.57065 -0.000446317 8.99066 6.89057e-05 9.4674L0.000138524 16.8393C0.000120643 17.3664 0.000105144 17.8212 0.0307089 18.1957C0.0630099 18.5911 0.134326 18.9843 0.32712 19.3627C0.61474 19.9272 1.07368 20.3861 1.63817 20.6737C2.01655 20.8665 2.40977 20.9378 2.80511 20.9701C3.17968 21.0008 3.63443 21.0007 4.16157 21.0007H15.8387C16.3658 21.0007 16.8206 21.0008 17.1952 20.9701C17.5905 20.9378 17.9837 20.8665 18.3621 20.6737C18.9266 20.3861 19.3855 19.9272 19.6732 19.3627C19.866 18.9843 19.9373 18.5911 19.9696 18.1957C20.0002 17.8212 20.0002 17.3664 20.0001 16.8393L20.0002 9.46741C20.0007 8.99066 20.0012 8.57065 19.8891 8.17023C19.7907 7.81883 19.6291 7.48832 19.4121 7.19494C19.1648 6.86064 18.833 6.60313 18.4564 6.31085L11.5964 0.975379L11.5218 0.916965C11.2547 0.707335 10.9202 0.444678 10.5228 0.337088ZM7.09459 12.7515C6.95693 12.2166 6.41175 11.8946 5.8769 12.0323C5.34205 12.17 5.02006 12.7151 5.15772 13.25C5.71272 15.4063 7.66897 17.0007 10.0001 17.0007C12.3313 17.0007 14.2876 15.4063 14.8426 13.25C14.9802 12.7151 14.6582 12.17 14.1234 12.0323C13.5885 11.8946 13.0433 12.2166 12.9057 12.7515C12.5726 14.0456 11.3966 15.0007 10.0001 15.0007C8.60363 15.0007 7.42768 14.0456 7.09459 12.7515Z" fill="#B79A5C"/>
</svg>
