<svg width="15" height="14" viewBox="0 0 15 14" fill="none" xmlns="http://www.w3.org/2000/svg">
<path d="M14.7507 7.44359C14.8888 7.16425 14.8888 6.8365 14.7507 6.55717C14.6291 6.3112 14.4156 6.18224 14.3051 6.12002C14.1861 6.05304 14.0335 5.98442 13.8814 5.916L2.69222 0.880893C2.5366 0.810834 2.38145 0.740987 2.25058 0.695654C2.13042 0.654033 1.88851 0.577987 1.62067 0.652513C1.31799 0.736733 1.07249 0.958304 0.957776 1.25079C0.856265 1.50961 0.907188 1.75803 0.93631 1.88181C0.968036 2.01665 1.02167 2.17814 1.07546 2.34012L2.15845 5.60301C2.24565 5.86572 2.28925 5.99708 2.37032 6.09421C2.44192 6.17998 2.53392 6.24638 2.63787 6.28731C2.7556 6.33366 2.894 6.33366 3.17081 6.33366H7.99994C8.36813 6.33366 8.66661 6.63214 8.66661 7.00033C8.66661 7.36852 8.36813 7.66699 7.99994 7.66699H3.18341C2.9073 7.66699 2.76925 7.66699 2.65174 7.71316C2.54797 7.75392 2.45608 7.82006 2.38448 7.90552C2.3034 8.0023 2.25957 8.13321 2.17192 8.39504L1.08022 11.6561C1.02584 11.8184 0.971678 11.9801 0.939543 12.1151C0.910085 12.2389 0.858313 12.4877 0.959546 12.7472C1.07387 13.0403 1.31939 13.2624 1.62235 13.347C1.89064 13.4218 2.1331 13.3455 2.25329 13.3039C2.38443 13.2585 2.53996 13.1884 2.69609 13.1181L13.8814 8.08477C14.0335 8.01635 14.1861 7.94772 14.3051 7.88073C14.4156 7.81852 14.6291 7.68955 14.7507 7.44359Z" fill="#B79A5C"/>
</svg>
