<svg width="13" height="10" viewBox="0 0 13 10" fill="none" xmlns="http://www.w3.org/2000/svg">
<path fill-rule="evenodd" clip-rule="evenodd" d="M6.33833 0.0853173C6.44496 0.0653109 6.55439 0.0653109 6.66102 0.0853173C6.78728 0.109005 6.89991 0.166482 6.95433 0.194254C6.95994 0.197114 6.96493 0.199659 6.96925 0.20182L12.5939 3.01414C12.7915 3.11295 12.9163 3.31494 12.9163 3.53589C12.9163 3.75684 12.7915 3.95882 12.5939 4.05764L6.96925 6.86995C6.96493 6.87211 6.95994 6.87466 6.95433 6.87752C6.89991 6.90529 6.78728 6.96277 6.66102 6.98645C6.55439 7.00646 6.44496 7.00646 6.33833 6.98645C6.21207 6.96277 6.09944 6.90529 6.04501 6.87752C6.03941 6.87466 6.03442 6.87211 6.0301 6.86995L0.405467 4.05764C0.207843 3.95882 0.0830078 3.75684 0.0830078 3.53589C0.0830078 3.31494 0.207843 3.11295 0.405467 3.01414L6.0301 0.20182C6.03442 0.199659 6.03941 0.197113 6.04502 0.194253C6.09944 0.16648 6.21207 0.109005 6.33833 0.0853173Z" fill="#2E2C34"/>
<path d="M0.974163 5.64639L0.405467 5.93074C0.207843 6.02955 0.0830078 6.23154 0.0830078 6.45249C0.0830078 6.67344 0.207843 6.87543 0.405467 6.97424L6.0301 9.78656L6.04501 9.79412C6.09944 9.8219 6.21207 9.87937 6.33833 9.90306C6.44496 9.92307 6.55439 9.92307 6.66102 9.90306C6.78728 9.87937 6.89991 9.8219 6.95433 9.79413L6.96925 9.78656L12.5939 6.97424C12.7915 6.87543 12.9163 6.67344 12.9163 6.45249C12.9163 6.23154 12.7915 6.02955 12.5939 5.93074L12.0252 5.64639L7.491 7.91349L7.48412 7.91694C7.45562 7.93125 7.38558 7.96641 7.31547 7.99691C7.22193 8.03761 7.07047 8.0967 6.87615 8.13315C6.62734 8.17983 6.37201 8.17983 6.1232 8.13315C5.92887 8.0967 5.77741 8.03761 5.68388 7.99691C5.61377 7.96641 5.54374 7.93125 5.51524 7.91694L5.50835 7.91349L0.974163 5.64639Z" fill="#2E2C34"/>
</svg>
