<svg width="28" height="20" viewBox="0 0 28 20" fill="none" xmlns="http://www.w3.org/2000/svg">
<path d="M2.34 15L2.94 12.636H4.212L3.612 15H4.56L5.148 12.636H6.6V11.712H5.34L5.724 10.224H7.08V9.288H5.916L6.528 6.888H5.58L4.968 9.288H3.708L4.308 6.888H3.36L2.76 9.288H1.32V10.224H2.568L2.172 11.712H0.84V12.636H1.992L1.392 15H2.34ZM3.516 10.224H4.788L4.392 11.712H3.12L3.516 10.224Z" fill="#667085"/>
<path d="M19.9997 5.33398V14.6673M19.9997 14.6673L24.6663 10.0007M19.9997 14.6673L15.333 10.0007" stroke="#101828" stroke-width="1.33333" stroke-linecap="round" stroke-linejoin="round"/>
</svg>
