<svg width="16" height="20" viewBox="0 0 16 20" fill="none" xmlns="http://www.w3.org/2000/svg">
<path fill-rule="evenodd" clip-rule="evenodd" d="M10.7011 0.833985H5.29892C4.62812 0.833975 4.07447 0.833967 3.62348 0.870814C3.15507 0.909085 2.72448 0.991222 2.32003 1.1973C1.69283 1.51688 1.18289 2.02681 0.863313 2.65402C0.657237 3.05846 0.5751 3.48905 0.536829 3.95746C0.499982 4.40845 0.49999 4.96208 0.5 5.63288V14.3684C0.49999 15.0392 0.499982 15.5928 0.536829 16.0438C0.5751 16.5123 0.657237 16.9428 0.863313 17.3473C1.18289 17.9745 1.69283 18.4844 2.32003 18.804C2.72448 19.0101 3.15507 19.0922 3.62348 19.1305C4.07447 19.1673 4.6281 19.1673 5.2989 19.1673H10.7011C11.3719 19.1673 11.9255 19.1673 12.3765 19.1305C12.8449 19.0922 13.2755 19.0101 13.68 18.804C14.3072 18.4844 14.8171 17.9745 15.1367 17.3473C15.3428 16.9428 15.4249 16.5123 15.4632 16.0438C15.5 15.5928 15.5 15.0392 15.5 14.3684V5.63288C15.5 4.96208 15.5 4.40846 15.4632 3.95746C15.4249 3.48905 15.3428 3.05846 15.1367 2.65402C14.8171 2.02681 14.3072 1.51688 13.68 1.1973C13.2755 0.991222 12.8449 0.909085 12.3765 0.870814C11.9255 0.833967 11.3719 0.833975 10.7011 0.833985ZM8 10.0007C9.61083 10.0007 10.9167 8.69481 10.9167 7.08398C10.9167 5.47315 9.61083 4.16732 8 4.16732C6.38917 4.16732 5.08333 5.47315 5.08333 7.08398C5.08333 8.69481 6.38917 10.0007 8 10.0007ZM6.33333 12.5007C5.8731 12.5007 5.5 12.8737 5.5 13.334C5.5 13.7942 5.8731 14.1673 6.33333 14.1673H9.66667C10.1269 14.1673 10.5 13.7942 10.5 13.334C10.5 12.8737 10.1269 12.5007 9.66667 12.5007H6.33333Z" fill="#2E2C34" fill-opacity="0.7"/>
</svg>
