<svg width="18" height="17" viewBox="0 0 18 17" fill="none" xmlns="http://www.w3.org/2000/svg">
<path d="M8.41107 0.410093C8.73651 0.0846564 9.26414 0.0846564 9.58958 0.410093L13.7562 4.57676C14.0817 4.9022 14.0817 5.42983 13.7562 5.75527C13.4308 6.08071 12.9032 6.08071 12.5777 5.75527L9.83366 3.01119L9.83366 10.9993C9.83366 11.4596 9.46056 11.8327 9.00033 11.8327C8.54009 11.8327 8.16699 11.4596 8.16699 10.9993L8.16699 3.01119L5.42291 5.75527C5.09748 6.08071 4.56984 6.08071 4.2444 5.75527C3.91897 5.42983 3.91897 4.9022 4.2444 4.57676L8.41107 0.410093Z" fill="black"/>
<path d="M1.50033 10.166C1.96056 10.166 2.33366 10.5391 2.33366 10.9993V11.9993C2.33366 12.7132 2.33431 13.1984 2.36495 13.5735C2.3948 13.9388 2.44891 14.1257 2.51532 14.256C2.6751 14.5696 2.93007 14.8246 3.24368 14.9844C3.37401 15.0508 3.56085 15.1049 3.92619 15.1347C4.30127 15.1654 4.78651 15.166 5.50033 15.166H12.5003C13.2141 15.166 13.6994 15.1654 14.0745 15.1347C14.4398 15.1049 14.6266 15.0508 14.757 14.9844C15.0706 14.8246 15.3255 14.5696 15.4853 14.256C15.5517 14.1257 15.6058 13.9388 15.6357 13.5735C15.6663 13.1984 15.667 12.7132 15.667 11.9993V10.9993C15.667 10.5391 16.0401 10.166 16.5003 10.166C16.9606 10.166 17.3337 10.5391 17.3337 10.9993V12.0338C17.3337 12.7046 17.3337 13.2582 17.2968 13.7092C17.2586 14.1776 17.1764 14.6082 16.9703 15.0127C16.6508 15.6399 16.1408 16.1498 15.5136 16.4694C15.1092 16.6754 14.6786 16.7576 14.2102 16.7959C13.7592 16.8327 13.2056 16.8327 12.5347 16.8327H5.46591C4.7951 16.8327 4.24147 16.8327 3.79047 16.7959C3.32206 16.7576 2.89147 16.6754 2.48703 16.4694C1.85982 16.1498 1.34988 15.6399 1.0303 15.0127C0.824229 14.6082 0.742092 14.1776 0.703821 13.7092C0.666974 13.2582 0.666982 12.7046 0.666993 12.0338V10.9993C0.666993 10.5391 1.04009 10.166 1.50033 10.166Z" fill="black"/>
</svg>
