<svg width="56" height="56" viewBox="0 0 56 56" fill="none" xmlns="http://www.w3.org/2000/svg">
<rect x="4" y="4" width="48" height="48" rx="24" fill="#F2F4F7"/>
<path fill-rule="evenodd" clip-rule="evenodd" d="M24.7587 17H31.2413C32.0463 17 32.7106 17 33.2518 17.0442C33.8139 17.0901 34.3306 17.1887 34.816 17.436C35.5686 17.8195 36.1805 18.4314 36.564 19.184C36.8113 19.6694 36.9099 20.1861 36.9558 20.7482C37 21.2894 37 21.9537 37 22.7587V25.7658C37 26.2001 37 26.4173 36.9294 26.5356C36.8587 26.6541 36.7865 26.7119 36.6553 26.7548C36.5244 26.7976 36.275 26.7413 35.7762 26.6287C35.6875 26.6087 35.5981 26.591 35.5082 26.5756C34.2866 26.366 33.0302 26.5956 31.9616 27.2236C30.8931 27.8516 30.0813 28.8375 29.67 30.0067C29.1201 31.5697 29.9415 33.2824 31.5044 33.8322C31.5438 33.8461 31.5833 33.8591 31.6228 33.8712C31.6075 34.2267 31.6556 34.591 31.7748 34.9487C31.8432 35.1537 31.9315 35.3464 32.0369 35.5253C31.7906 35.9608 31.65 36.464 31.65 37C31.65 37.3487 31.7095 37.6835 31.8189 37.9948C31.9023 38.2322 31.944 38.3509 31.9487 38.3679C32.0514 38.7426 31.8892 38.9714 31.5016 38.9988C31.4841 39 31.4031 39 31.2413 39H24.7587C23.9537 39 23.2894 39 22.7482 38.9558C22.1861 38.9099 21.6694 38.8113 21.184 38.564C20.4314 38.1805 19.8195 37.5686 19.436 36.816C19.1887 36.3306 19.0901 35.8139 19.0442 35.2518C19 34.7106 19 34.0463 19 33.2413V22.7587C19 21.9537 19 21.2894 19.0442 20.7482C19.0901 20.1861 19.1887 19.6694 19.436 19.184C19.8195 18.4314 20.4314 17.8195 21.184 17.436C21.6694 17.1887 22.1861 17.0901 22.7482 17.0442C23.2894 17 23.9537 17 24.7587 17ZM23 21C22.4477 21 22 21.4477 22 22C22 22.5523 22.4477 23 23 23H32C32.5523 23 33 22.5523 33 22C33 21.4477 32.5523 21 32 21H23ZM22 26C22 25.4477 22.4477 25 23 25H29C29.5523 25 30 25.4477 30 26C30 26.5523 29.5523 27 29 27H23C22.4477 27 22 26.5523 22 26ZM22 30C22 29.4477 22.4477 29 23 29H25C25.5523 29 26 29.4477 26 30C26 30.5523 25.5523 31 25 31H23C22.4477 31 22 30.5523 22 30Z" fill="#B79A5C"/>
<path d="M33.9884 30.6721C34.2426 30.5227 34.5414 30.4681 34.832 30.518C35.1225 30.5678 35.3861 30.7189 35.5759 30.9444C35.7658 31.1699 35.8697 31.4554 35.8693 31.7502V31.7517C35.8693 31.9703 35.6921 32.2714 35.1904 32.6059C34.97 32.7528 34.7425 32.8673 34.5661 32.9457C34.4793 32.9842 34.4084 33.0125 34.3616 33.0304C34.3382 33.0393 34.3211 33.0455 34.3112 33.049L34.3031 33.0519C33.7802 33.2271 33.4978 33.7928 33.6723 34.3162C33.8469 34.8402 34.4132 35.1233 34.9372 34.9487L34.9384 34.9483L34.9812 34.9334C35.0043 34.9252 35.0354 34.9139 35.0735 34.8994C35.1496 34.8704 35.2544 34.8284 35.3784 34.7733C35.6236 34.6643 35.9581 34.4978 36.2998 34.27C36.9221 33.8551 37.8688 33.0324 37.8693 31.7526C37.8703 30.9857 37.5999 30.2431 37.106 29.6564C36.612 29.0695 35.9262 28.6765 35.1701 28.5468C34.414 28.4171 33.6364 28.5592 32.9751 28.9478C32.3137 29.3365 31.8113 29.9467 31.5567 30.6704C31.3734 31.1914 31.6472 31.7623 32.1682 31.9456C32.6892 32.1288 33.2601 31.8551 33.4434 31.3341C33.5412 31.056 33.7343 30.8215 33.9884 30.6721Z" fill="#B79A5C"/>
<path d="M34.65 36C34.0977 36 33.65 36.4477 33.65 37C33.65 37.5523 34.0977 38 34.65 38H34.66C35.2123 38 35.66 37.5523 35.66 37C35.66 36.4477 35.2123 36 34.66 36H34.65Z" fill="#B79A5C"/>
<rect x="4" y="4" width="48" height="48" rx="24" stroke="#F9FAFB" stroke-width="8"/>
</svg>
