<svg width="15" height="14" viewBox="0 0 15 14" fill="none" xmlns="http://www.w3.org/2000/svg">
<path fill-rule="evenodd" clip-rule="evenodd" d="M11.0248 5.8577C11.6553 5.22719 12.6776 5.22718 13.3081 5.85768C13.9386 6.4882 13.9386 7.5105 13.3081 8.14102C12.0482 9.40091 10.7861 10.6587 9.52839 11.9207C9.47872 11.9706 9.41615 12.0333 9.34292 12.0871C9.27928 12.1338 9.21106 12.174 9.13931 12.2069C9.05674 12.2448 8.97148 12.269 8.90379 12.2882C8.29447 12.4612 7.68572 12.6362 7.07669 12.8102C6.87299 12.8684 6.65375 12.8116 6.50395 12.6618C6.35416 12.512 6.29735 12.2928 6.35554 12.0891C6.52955 11.4801 6.70458 10.8713 6.87755 10.262C6.89676 10.1943 6.92097 10.109 6.95888 10.0265C6.99182 9.95472 7.03196 9.88651 7.07868 9.82286C7.13245 9.74963 7.19523 9.68706 7.24507 9.63739C8.50711 8.37964 9.7649 7.1176 11.0248 5.8577Z" fill="#2E2C34"/>
<path fill-rule="evenodd" clip-rule="evenodd" d="M4.35553 8.46359C4.44024 8.47051 4.56157 8.48827 4.6887 8.55305C4.85335 8.63694 4.9872 8.7708 5.07109 8.93544C5.13587 9.06258 5.15363 9.1839 5.16055 9.26861C5.16652 9.34172 5.16649 9.42471 5.16647 9.49419C5.16618 10.2615 5.16618 11.0288 5.16647 11.7962C5.16649 11.8657 5.16652 11.9486 5.16055 12.0218C5.15363 12.1065 5.13587 12.2278 5.07109 12.3549C4.9872 12.5196 4.85335 12.6534 4.6887 12.7373C4.56157 12.8021 4.44024 12.8199 4.35553 12.8268C4.28243 12.8327 4.19944 12.8327 4.12996 12.8327C2.45148 12.8321 3.68938 12.8237 2.01093 12.8327C1.9693 12.833 1.88562 12.8334 1.80619 12.8194C1.44393 12.7555 1.1603 12.4719 1.09642 12.1096C1.08242 12.0302 1.08286 11.9465 1.08308 11.9049C1.08492 11.5602 1.06731 11.2089 1.12744 10.8679C1.34036 9.66034 2.28579 8.71492 3.49332 8.50199C3.87065 8.43546 4.19917 8.45082 4.35553 8.46359Z" fill="#2E2C34"/>
<path fill-rule="evenodd" clip-rule="evenodd" d="M3.1248 4.37435C3.1248 2.60244 4.56122 1.16602 6.33313 1.16602C8.10504 1.16602 9.54146 2.60244 9.54146 4.37435C9.54146 6.14626 8.10504 7.58268 6.33313 7.58268C4.56122 7.58268 3.1248 6.14626 3.1248 4.37435Z" fill="#2E2C34"/>
</svg>
